<!-- Generator: Adobe Illustrator 19.2.1, SVG Export Plug-In  -->
<svg version="1.1"
	 xmlns="http://www.w3.org/2000/svg" xmlns:xlink="http://www.w3.org/1999/xlink" xmlns:a="http://ns.adobe.com/AdobeSVGViewerExtensions/3.0/"
	 x="0px" y="0px" width="167px" height="162.388px" viewBox="0 0 167 162.388" style="enable-background:new 0 0 167 162.388;"
	 xml:space="preserve">
<style type="text/css">
	.st0{fill:#E73D3E;}
</style>
<defs>
</defs>
<path class="st0" d="M167,45.388h-56.86c7.672-5,16.343-13.063,21.528-20.672C138.209,15.116,129,7.898,123,0v10.132
	c1,0,1.722,0.427,1.593,0.61c-1.894,2.689,0.549,5.432-2.984,10.724c-6.928,10.379-17.719,16.512-27.304,18.922
	c2.664-6.872,8.793-19.368,20.301-27.037c4.361-2.905,7.197-3.025,8.216-3.025l-0.005-9.938h-0.001
	c-3.97,0-8.696,1.298-13.839,4.725C88.801,18.557,82.782,42.985,82.782,42.985C78.227,22.821,69.307,10.732,56.822,4.976
	c-2.384-1.099-5.875-3.604-7.414-1.652c-2.067,2.621-9.306,10.411-13.947,19.65c-5.13,10.213,13.83,17.414,23.375,22.414H0v49h9.815
	l-4.563,68h77.53h74.354l-4.231-64.203L167,93.968V45.388z M42.4,26.445l10.18-12.316c8.627,3.977,14.757,12.064,18.634,24.633
	C61.866,35.845,45.197,36.118,42.4,26.445z M51,142.388H33v-18h18V142.388z M51,121.388H33v-17h18V121.388z M51,101.388H33v-18h18
	V101.388z M51,80.388H33v-18h18V80.388z M72,142.388H54v-18h18V142.388z M72,121.388H54v-17h18V121.388z M72,101.388H54v-18h18
	V101.388z M72,80.388H54v-18h18V80.388z M92,142.388H75v-18h17V142.388z M92,121.388H75v-17h17V121.388z M92,101.388H75v-18h17
	V101.388z M92,80.388H75v-18h17V80.388z M113,142.388H95v-18h18V142.388z M113,121.388H95v-17h18V121.388z M113,101.388H95v-18h18
	V101.388z M113,80.388H95v-18h18V80.388z M134,142.388h-18v-18h18V142.388z M134,121.388h-18v-17h18V121.388z M134,101.388h-18v-18
	h18V101.388z M134,80.388h-18v-18h18V80.388z"/>
<rect x="55.582" y="63.97" class="st0" width="14.836" height="14.836"/>
<rect x="76.082" y="63.97" class="st0" width="14.836" height="14.836"/>
<rect x="96.582" y="63.97" class="st0" width="14.836" height="14.836"/>
<rect x="117.582" y="63.97" class="st0" width="14.836" height="14.836"/>
<rect x="34.582" y="84.97" class="st0" width="14.836" height="14.836"/>
<rect x="55.582" y="84.97" class="st0" width="14.836" height="14.836"/>
<rect x="76.082" y="84.97" class="st0" width="14.836" height="14.836"/>
<rect x="34.582" y="63.97" class="st0" width="14.836" height="14.836"/>
</svg>