<!-- Generator: Adobe Illustrator 19.2.1, SVG Export Plug-In  -->
<svg version="1.1"
	 xmlns="http://www.w3.org/2000/svg" xmlns:xlink="http://www.w3.org/1999/xlink" xmlns:a="http://ns.adobe.com/AdobeSVGViewerExtensions/3.0/"
	 x="0px" y="0px" width="33px" height="23.02px" viewBox="0 0 33 23.02" style="enable-background:new 0 0 33 23.02;"
	 xml:space="preserve">
<style type="text/css">
	.st0{fill:#F29100;}
</style>
<defs>
</defs>
<path class="st0" d="M0,0c0,0.751,1.809,22.322,1.809,23.02c10.156,0,19.298,0,29.454,0C31.263,22.322,33,0.751,33,0
	C32.047,0,0.917,0,0,0z M20.548,14.363l-1.095,0.059h-0.286l-0.048,0.322l0.082,4.547c0,0.171-0.079,0.295-0.238,0.378l-1.946,0.498
	c-0.349,0-0.529-0.224-0.529-0.668v-0.085h0.059l-0.152-3.563v-1.244h-1.025l-3.19-0.092h0.318
	c-0.286-0.092-0.428-0.165-0.428-0.332l0.227-3.57c0-2.737-0.062-5.022-0.154-6.855V3.187c0-0.222,0.107-0.333,0.297-0.333
	l1.83,0.143c0.135,0,0.249,0.064,0.336,0.19L14.56,3.899c0.107,3.13,0.235,5.623,0.382,7.472h1.361V11.09l0.092-1.904V7.948
	l0.059-3.618l0.053-0.19l-0.045-0.333c0-0.317,0.16-0.453,0.477-0.453l0.335-0.025h1.857l0.086,4.511l0.197,3.23
	c0.139,0.064,0.309,0.007,0.678,0.007l0.407-0.021c0.175,0,0.303-0.05,0.383,0.108l0.048,2.1
	C20.929,13.993,20.802,14.363,20.548,14.363z"/>
</svg>