<!-- Generator: Adobe Illustrator 19.2.1, SVG Export Plug-In  -->
<svg version="1.1"
	 xmlns="http://www.w3.org/2000/svg" xmlns:xlink="http://www.w3.org/1999/xlink" xmlns:a="http://ns.adobe.com/AdobeSVGViewerExtensions/3.0/"
	 x="0px" y="0px" width="492.627px" height="180.371px" viewBox="0 0 492.627 180.371"
	 style="enable-background:new 0 0 492.627 180.371;" xml:space="preserve">
<style type="text/css">
	.st0{fill:#E73D3E;}
	.st1{fill:#FFFFFF;}
	.st2{fill:#009EE2;}
	.st3{fill:#F29100;}
</style>
<defs>
</defs>
<g>
	<path class="st0" d="M435.816,44.935c7.672-4.174,16.251-12.837,21.436-20.445c6.542-9.6-2.215-16.592-8.759-24.49l0,10.131
		c1.358,0,1.814,0.427,1.684,0.61c-1.894,2.689,0.595,5.432-2.938,10.724c-6.928,10.379-17.695,16.512-27.281,18.922
		c2.664-6.872,8.804-19.368,20.312-27.037c4.361-2.905,7.203-3.219,8.222-3.219L448.492,0h-0.001
		c-3.97,0.001-8.696,1.492-13.839,4.919c-20.175,13.444-26.194,37.969-26.194,37.969c-4.555-20.164-13.474-32.204-25.959-37.961
		c-2.384-1.1-5.875-3.58-7.414-1.628c-2.067,2.621-9.306,10.197-13.947,19.436c-5.13,10.213,13.83,17.987,23.376,22.2h-58.837
		v49.032h9.815l-4.563,68.387h77.53h74.354l-4.256-64.186l14.071-4.201V44.935H435.816z M378.256,14.128
		c8.628,3.977,14.757,12.065,18.634,24.633c-9.349-2.916-26.018-2.643-28.814-12.316"/>
	<g>
		<g>
			<path class="st1" d="M366.632,64.377l2.191,63.153l16.702-1.983l0.104-61.9h17.641l1.462,80.794l-55.324,0.313V63.542
				L366.632,64.377z"/>
			<path class="st1" d="M428.218,114.169l2.191,12.943l13.049,0.835v-18.58l-31.003-3.132l-0.73-42.276l50.94-1.67l-2.923,20.042
				h-10.856l0.73-5.219l-18.58,1.983v10.021l30.271,1.565l2.923,53.133l-50.001,1.879l-2.609-4.906l-0.626-25.783L428.218,114.169z"
				/>
		</g>
	</g>
	<g>
		<path class="st2" d="M309.849,64.078l1.857,30.527c1.308,0.598,2.908,0.116,6.382,0.116l3.829-0.174
			c1.644,0,2.855-0.46,3.602,1.034l0.447,19.725c0,6.874-1.195,10.311-3.586,10.311l-10.311,0.448h-2.69l-0.449,3.138l0.771,42.873
			c0,1.607-0.748,2.802-2.241,3.586l-18.271,4.707c-3.288,0-4.932-2.092-4.932-6.276v-0.897h0.449l-1.22-33.459v-11.656h-9.862
			l-30.037-0.897h2.997c-2.69-0.523-4.034-1.569-4.034-3.138l2.241-33.622c0-25.777-0.447-47.295-1.345-64.555v-5.379
			c0-2.092,0.897-3.138,2.69-3.138l17.178,1.345c1.27,0,2.316,0.598,3.138,1.794l-0.449,6.724
			c1.009,29.476,2.204,52.938,3.587,70.383h13.001v-2.69l0.896-17.932V65.321l0.449-34.07l0.449-1.794l-0.449-3.138
			c0-2.989,1.494-4.483,4.483-4.483l3.138-0.449h17.484"/>
	</g>
	<g>
		<path class="st3" d="M65.571,47.964l6.372,36.104l-21.504-1.062l0.531-13.805l-21.901-1.593l3.85,59.731l3.186,1.858h14.866
			l2.124-11.682H42.21l1.858-16.725l28.671,2.921l-2.92,50.174H19.38l-12.743-7.964L3.982,60.972l12.477-11.416L65.571,47.964z"/>
		<path class="st3" d="M80.703,51.149h20.972v100.349H81.499L80.703,51.149z"/>
		<path class="st3" d="M114.416,47.433l51.236,0.265l-1.593,15.929l-27.078,2.124v23.361l22.564-1.327v19.38l-24.954,1.327
			l-2.654,45.396l-19.646-3.451l-2.654-100.88L114.416,47.433z"/>
		<path class="st3" d="M182.907,151.763l3.318-87.34l-12.609-1.328l1.593-14.069h65.306l-1.858,17.521l-24.423-1.327l-7.965,88.668
			L182.907,151.763z"/>
	</g>
</g>
</svg>