<!-- Generator: Adobe Illustrator 19.1.0, SVG Export Plug-In  -->
<svg version="1.1"
	 xmlns="http://www.w3.org/2000/svg" xmlns:xlink="http://www.w3.org/1999/xlink" xmlns:a="http://ns.adobe.com/AdobeSVGViewerExtensions/3.0/"
	 x="0px" y="0px" width="397.852px" height="187.586px" viewBox="0 0 397.852 187.586"
	 style="enable-background:new 0 0 397.852 187.586;" xml:space="preserve">
<style type="text/css">
	.st0{opacity:0.9;}
	.st1{fill:#FFFFFF;}
</style>
<defs>
</defs>
<g class="st0">
	<g>
		<path class="st1" d="M227.079,133.919c0-13.018-8.733-20.789-23.363-20.789h-24.545v70.321h6.835v-28.527h18.491l18.446,28.527
			h7.992l-19.137-29.634C219.388,151.86,227.079,145.806,227.079,133.919z M186.006,119.748h17.495
			c10.8,0,16.746,5.109,16.746,14.386c0,9.006-6.103,14.171-16.746,14.171h-17.495V119.748z"/>
		<polygon class="st1" points="231.615,113.13 231.615,119.748 256.603,119.748 256.603,183.452 263.436,183.452 263.436,119.748 
			288.317,119.748 288.317,113.13 		"/>
		<path class="st1" d="M154.62,141.945c-3.806-9.207-7.616-18.422-11.445-27.635l-0.49-1.18h-5.451l-0.491,1.18
			c-2.706,6.517-5.406,13.033-8.103,19.547c-6.376,15.403-12.972,31.333-19.562,46.934l-1.123,2.66h7.501l24.458-59.532
			l12.998,31.358h-0.044l6.033,14.708c1.56,3.818,3.327,8.145,5.088,12.298l0.495,1.167h7.362l-1.108-2.653
			C165.343,167.877,159.986,154.919,154.62,141.945z"/>
	</g>
	<g>
		<path class="st1" d="M0,22.2h31.957c8.581,0,15.338,2.466,19.628,6.649c3.11,3.218,4.825,7.186,4.825,12.013v0.214
			c0,9.759-6.006,14.8-11.905,17.374c8.901,2.682,16.088,7.828,16.088,18.124v0.214c0,12.87-10.832,20.484-27.242,20.484H0V22.2z
			 M30.564,55.66c10.187,0,17.267-4.612,17.267-13.405V42.04c0-7.4-5.898-12.226-16.623-12.226H8.366V55.66H30.564z M33.567,89.658
			c11.367,0,18.447-5.041,18.447-13.406v-0.214c0-8.152-6.864-12.87-19.948-12.87h-23.7v26.49H33.567z"/>
		<path class="st1" d="M154.433,59.951v-0.214c0-20.7,15.55-38.824,38.395-38.824c22.842,0,38.178,17.909,38.178,38.609
			c0.109,0.107,0.109,0.107,0,0.214c0,20.698-15.55,38.822-38.393,38.822C169.769,98.558,154.433,80.648,154.433,59.951z
			 M222.214,59.951v-0.214c0-17.052-12.441-30.995-29.601-30.995s-29.386,13.728-29.386,30.78v0.214
			c0,17.051,12.44,30.993,29.601,30.993C209.987,90.73,222.214,77.003,222.214,59.951z"/>
		<path class="st1" d="M248.918,22.2h31.958c8.58,0,15.335,2.466,19.626,6.649c3.11,3.218,4.825,7.186,4.825,12.013v0.214
			c0,9.759-6.004,14.8-11.902,17.374c8.9,2.682,16.084,7.828,16.084,18.124v0.214c0,12.87-10.83,20.484-27.238,20.484h-33.354V22.2z
			 M279.481,55.66c10.189,0,17.268-4.612,17.268-13.405V42.04c0-7.4-5.898-12.226-16.624-12.226h-22.842V55.66H279.481z
			 M282.484,89.658c11.369,0,18.447-5.041,18.447-13.406v-0.214c0-8.152-6.863-12.87-19.947-12.87h-23.701v26.49H282.484z"/>
		<polygon class="st1" points="373.642,3.969 365.061,0 354.874,15.55 361.523,15.55 		"/>
		<polygon class="st1" points="362.06,21.664 354.124,21.664 319.913,97.271 328.598,97.271 334.563,83.977 334.563,83.977 
			340.86,69.817 340.825,69.817 357.984,31.531 370.547,59.736 370.547,59.736 370.59,59.832 375.037,69.817 375.006,69.817 
			382.885,87.635 387.155,97.271 396.272,97.271 		"/>
		<polygon class="st1" points="113.036,21.664 105.1,21.664 70.889,97.271 79.575,97.271 85.539,83.977 85.539,83.977 
			91.836,69.817 91.801,69.817 108.959,31.531 121.522,59.736 121.522,59.736 121.566,59.832 126.013,69.817 125.978,69.817 
			133.86,87.635 138.128,97.271 147.247,97.271 		"/>
	</g>
	<rect y="148.598" class="st1" width="185.373" height="6.053"/>
	<rect x="275.281" y="113.13" class="st1" width="120.991" height="6.542"/>
	<g>
		<path class="st1" d="M380.325,187.586h-28.787l-14.063-21.466l14.063-21.466h28.787l17.527,21.466L380.325,187.586z
			 M352.861,185.137h26.303l15.528-19.017l-15.528-19.018h-26.303l-12.459,19.018L352.861,185.137z"/>
		<rect x="259.965" y="164.896" class="st1" width="136.307" height="2.448"/>
		
			<rect x="379.251" y="151.011" transform="matrix(0.8298 0.558 -0.558 0.8298 153.6082 -185.2015)" class="st1" width="2.449" height="16.514"/>
		
			<rect x="386.384" y="157.835" transform="matrix(0.8297 0.5582 -0.5582 0.8297 156.6496 -188.7212)" class="st1" width="2.448" height="9.055"/>
		
			<rect x="361.224" y="143.812" transform="matrix(0.8305 0.557 -0.557 0.8305 148.3346 -175.4514)" class="st1" width="2.449" height="24.378"/>
		
			<rect x="370.991" y="143.812" transform="matrix(0.8303 0.5573 -0.5573 0.8303 150.0867 -180.9552)" class="st1" width="2.448" height="24.377"/>
		
			<rect x="360.026" y="175.018" transform="matrix(0.557 0.8305 -0.8305 0.557 311.2484 -231.0517)" class="st1" width="24.377" height="2.448"/>
		
			<rect x="350.26" y="175.018" transform="matrix(0.5571 0.8305 -0.8305 0.5571 306.9051 -222.9385)" class="st1" width="24.378" height="2.449"/>
		
			<rect x="341.995" y="175.018" transform="matrix(0.5571 0.8305 -0.8305 0.5571 303.2443 -216.0747)" class="st1" width="24.378" height="2.449"/>
		
			<rect x="372.218" y="171.752" transform="matrix(0.5579 0.8299 -0.8299 0.5579 311.7447 -239.2838)" class="st1" width="16.515" height="2.449"/>
		
			<rect x="383.08" y="168.658" transform="matrix(0.5578 0.83 -0.83 0.5578 312.384 -246.5809)" class="st1" width="9.057" height="2.448"/>
		
			<rect x="352.959" y="143.812" transform="matrix(0.8305 0.557 -0.557 0.8305 146.9336 -170.8476)" class="st1" width="2.449" height="24.378"/>
	</g>
</g>
</svg>