<!-- Generator: Adobe Illustrator 19.2.1, SVG Export Plug-In  -->
<svg version="1.1"
	 xmlns="http://www.w3.org/2000/svg" xmlns:xlink="http://www.w3.org/1999/xlink" xmlns:a="http://ns.adobe.com/AdobeSVGViewerExtensions/3.0/"
	 x="0px" y="0px" width="377.667px" height="264.333px" viewBox="0 0 377.667 264.333"
	 style="enable-background:new 0 0 377.667 264.333;" xml:space="preserve">
<style type="text/css">
	.st0{fill:#FFFFFF;}
</style>
<defs>
</defs>
<path class="st0" d="M136.695,109.126c12.511,10.948,25.108,21.787,37.654,32.695c7.954,6.916,15.838,13.909,23.886,20.713
	c0.795,0.672,2.801,0.747,3.757,0.218c1.977-1.094,3.683-2.72,5.4-4.24c9.139-8.087,18.192-16.273,27.379-24.305
	c12.265-10.723,24.665-21.294,36.934-32.013c9.065-7.919,17.956-16.037,27.027-23.948c12.028-10.49,24.163-20.857,36.238-31.294
	c9.961-8.61,19.943-17.043,29.833-25.734c1.962-1.724,4.579-4.885,7.371-6.885L0,0C10.109,6,127.637,101.199,136.695,109.126z"/>
<g>
	<path class="st0" d="M265.741,134.064c3.155,3,5.848,5.239,8.162,7.829c12.948,14.49,25.761,29.093,38.692,43.598
		c6.698,7.514,13.593,14.85,20.292,22.364c12.931,14.505,25.824,29.067,38.687,43.632c2.047,2.318,4.093,4.669,6.093,7.018V36.168
		C339.667,69.041,303.052,101.412,265.741,134.064z"/>
</g>
<path class="st0" d="M128.887,132.226c-2.24-2.4-4.797-4.512-7.289-6.67c-12.189-10.553-24.428-21.048-36.582-31.64
	c-8.821-7.688-17.257-15.541-26.066-23.244C45.132,58.589,13,31.378,0,19.333l17.667,240.908c6-6.768,11.753-13.542,17.764-20.301
	c10.846-12.198,21.546-24.416,32.458-36.555c15.558-17.308,31.146-34.534,46.714-51.833c4.736-5.263,9.358-10.604,13.896-16.037
	C129.123,134.768,129.388,132.763,128.887,132.226z"/>
<path class="st0" d="M350.979,264.333c-1.762-2-3.525-3.898-5.293-5.871c-10.252-11.439-20.737-22.572-31.007-33.995
	c-13.78-15.327-27.475-30.682-41.153-46.099c-3.595-4.052-6.883-8.354-10.509-12.376c-4.954-5.494-10.098-10.805-15.164-16.205
	c-14.028,12.156-44.505,45.439-49.369,41.232c-8.725-7.545-25.689-20.355-34.368-27.954c-5.143-4.503-10.378-8.899-15.768-13.512
	c-4.542,5.322-8.618,10.274-12.879,15.061c-14.145,15.893-28.359,31.725-42.542,47.584c-11.213,12.539-22.609,25.023-33.868,37.519
	c-4.426,4.912-8.811,9.616-13.213,14.616"/>
</svg>