<!-- Generator: Adobe Illustrator 19.1.0, SVG Export Plug-In  -->
<svg version="1.1"
	 xmlns="http://www.w3.org/2000/svg" xmlns:xlink="http://www.w3.org/1999/xlink" xmlns:a="http://ns.adobe.com/AdobeSVGViewerExtensions/3.0/"
	 x="0px" y="0px" width="152.977px" height="189.993px" viewBox="0 0 152.977 189.993"
	 style="enable-background:new 0 0 152.977 189.993;" xml:space="preserve">
<style type="text/css">
	.st0{fill:#E73D3E;}
	.st1{fill:#FFFFFF;}
	.st2{fill:#009EE2;}
	.st3{fill:#F29100;}
</style>
<defs>
</defs>
<g>
	<g>
		<path class="st0" d="M77.413,32.96c4.939-3.767,10.028-10.788,12.846-16.699C93.814,8.803,86.899,4.841,81.442,0l1.1,7.121
			c0.954-0.148,1.321,0.103,1.25,0.246c-1.039,2.096,1.008,3.753-0.9,7.857c-3.742,8.047-10.644,13.528-17.12,16.263
			c1.126-5.119,4.084-14.569,11.34-21.21c2.75-2.516,4.713-3.045,5.429-3.156L81.442,0l-0.001,0c-2.79,0.432-5.95,1.993-9.193,4.961
			c-12.72,11.641-14.287,29.532-14.287,29.532C52.57,20.815,44.993,13.321,35.592,10.631c-1.795-0.514-4.518-1.878-5.388-0.339
			c-1.168,2.066-5.433,8.178-7.692,15.175c-2.497,7.736,11.675,11.14,18.841,13.065L0,44.924l5.326,34.463l6.898-1.066l4.221,48.562
			l54.493-8.421l52.261-8.076l-9.963-44.652l9.433-4.481l-5.326-34.463L77.413,32.96z M33.61,17.559
			c6.496,1.858,11.683,6.877,15.773,15.289c-6.887-1.034-18.574,0.969-21.59-5.527"/>
		<path id="XMLID_45_" class="st1" d="M88.342,56.552l-21.619,4.744c-5.016,1.101-8.311,5.896-7.666,10.9
			c-2.27-1.909-5.363-2.796-8.468-2.115l-13.896,3.05c-5.301,1.163-8.687,6.453-7.524,11.754l5.511,10.051
			c3.046,5.201,6.453,8.687,11.754,7.524l10.743-2.358c3.344-0.734,5.922-3.111,7.081-6.095c2.087,3.642,6.382,5.696,10.686,4.751
			l18.184-3.991c5.301-1.163,8.687-6.453,7.524-11.754l-0.556-18.938C98.933,58.774,93.643,55.388,88.342,56.552z"/>
		<g>
			<circle id="XMLID_44_" class="st0" cx="41.108" cy="78.681" r="3.503"/>
			<circle id="XMLID_43_" class="st0" cx="70.497" cy="71.202" r="3.503"/>
		</g>
		<polygon id="XMLID_41_" class="st2" points="2.453,59.433 3.374,63.911 118.744,41.288 118.752,35.55 		"/>
		<g>
			<path id="XMLID_11_" class="st2" d="M26.058,38.287c-0.141,0.093-0.365,0.525-0.62,1.134c-0.1-0.024-0.18-0.039-0.23-0.041
				c-0.369,0.128-1.82,4.241-2.257,6.219c-0.915,4.141-0.671,7.47-0.671,7.47c-0.794,0.752-2.72,3.664-3.102,4.689
				c0.034,0.022,0.084,0.056,0.146,0.097c-0.092-0.061-0.146-0.097-0.146-0.097s-3.158,1.078-6.612,3.54
				c-1.65,1.176-4.867,4.12-4.841,4.51c0.021,0.045,0.066,0.112,0.127,0.195c-0.461,0.473-0.771,0.848-0.801,1.014
				c0.272,0.569,3.945,4.425,6.03,5.848c2.085,1.422,7.72,3.162,8.139,2.92c0.104-0.06,0.303-0.472,0.547-1.087
				c0.154,0.017,0.261,0.014,0.307-0.012c0.424-0.245,2.431-6.311,2.562-8.241c0.125-1.843-0.162-3.8-0.678-5.525
				c0.034,0.022,0.065,0.043,0.091,0.06c0.9-0.688,2.821-3.592,3.102-4.689c-0.026-0.017-0.058-0.038-0.091-0.06
				c1.79-0.2,3.703-0.702,5.35-1.538c1.725-0.876,6.522-5.096,6.582-5.582c0.006-0.052-0.034-0.152-0.109-0.287
				c0.471-0.464,0.772-0.809,0.787-0.928c0.058-0.48-3.747-4.985-5.872-6.348C31.674,40.186,26.688,38.314,26.058,38.287z
				 M23.728,60.767c0.028,0.019,0.055,0.037,0.081,0.054C23.783,60.803,23.756,60.785,23.728,60.767z M19.444,57.933
				c0.048,0.032,0.1,0.066,0.157,0.104C19.544,57.999,19.49,57.963,19.444,57.933z M19.699,58.101
				c0.053,0.035,0.108,0.071,0.166,0.11C19.806,58.172,19.751,58.136,19.699,58.101z M19.991,58.295
				c0.2,0.132,0.424,0.28,0.663,0.438C20.413,58.574,20.189,58.426,19.991,58.295z M20.759,58.803
				c0.166,0.11,0.337,0.223,0.511,0.338C21.096,59.026,20.925,58.912,20.759,58.803z M21.626,59.376
				c0.055,0.036,0.109,0.072,0.164,0.108C21.735,59.449,21.681,59.413,21.626,59.376z M22.484,59.944
				c0.037,0.024,0.073,0.048,0.109,0.072C22.557,59.992,22.521,59.968,22.484,59.944z M24.709,54.675
				c0.17,0.112,0.34,0.225,0.507,0.335C25.049,54.9,24.879,54.787,24.709,54.675z M22.419,53.161
				c0.057,0.038,0.129,0.086,0.217,0.144C22.553,53.249,22.479,53.2,22.419,53.161z M22.72,53.36c0.072,0.048,0.151,0.1,0.236,0.156
				C22.872,53.46,22.793,53.407,22.72,53.36z M22.999,53.544c0.067,0.044,0.137,0.09,0.211,0.139
				C23.137,53.635,23.066,53.588,22.999,53.544z M23.631,53.962c0.058,0.038,0.116,0.077,0.176,0.116
				C23.747,54.039,23.688,54,23.631,53.962z M24.032,54.227c0,0,0.002,0.002,0.004,0.002C24.034,54.229,24.033,54.228,24.032,54.227
				z"/>
			<path class="st3" d="M26.156,59.024L26.156,59.024c-0.899,1.395-2.777,1.801-4.172,0.901l-0.608-0.392
				c-1.395-0.899-1.801-2.777-0.901-4.172l0,0c0.899-1.395,2.777-1.801,4.172-0.901l0.608,0.392
				C26.65,55.752,27.056,57.629,26.156,59.024z"/>
		</g>
	</g>
	<g id="XMLID_1_">
		<path id="XMLID_9_" class="st0" d="M61.356,119.274l-33.718,55.28c-0.336,0.039-0.673,0.083-1.013,0.136
			c-7.584,1.191-13.206,5.513-12.556,9.655c0.649,4.131,7.292,6.521,14.853,5.351l0,0.001l11.218-1.761l30.396-70.539l2.026-0.414
			l59.366,56.543l8.442-1.325c7.585-1.191,13.206-5.513,12.556-9.655c-0.65-4.142-7.326-6.534-14.91-5.343
			c-0.364,0.057-0.721,0.123-1.075,0.195l-55.316-42.268L61.356,119.274z"/>
		<g id="XMLID_2_">
			<g id="XMLID_6_">
				<path id="XMLID_8_" class="st0" d="M140.147,166.279c-0.117,0.018-0.24-0.008-0.343-0.083c-0.206-0.15-0.251-0.439-0.101-0.645
					l3.714-5.097c0.15-0.206,0.439-0.251,0.645-0.101c0.206,0.15,0.251,0.439,0.101,0.645l-3.714,5.097
					C140.373,166.198,140.264,166.261,140.147,166.279z"/>
				<path id="XMLID_7_" class="st0" d="M144.552,165.587c-0.117,0.018-0.24-0.008-0.343-0.083l-5.097-3.714
					c-0.206-0.15-0.251-0.439-0.101-0.645c0.15-0.206,0.439-0.251,0.645-0.101l5.097,3.714c0.206,0.15,0.251,0.439,0.101,0.645
					C144.778,165.506,144.669,165.569,144.552,165.587z"/>
			</g>
			<g id="XMLID_3_">
				<path id="XMLID_5_" class="st0" d="M144.552,165.587c-0.117,0.018-0.24-0.008-0.343-0.083c-0.206-0.15-0.251-0.439-0.101-0.645
					l3.714-5.097c0.15-0.206,0.439-0.251,0.645-0.101c0.206,0.15,0.251,0.439,0.101,0.645l-3.714,5.097
					C144.778,165.506,144.669,165.569,144.552,165.587z"/>
				<path id="XMLID_4_" class="st0" d="M148.957,164.896c-0.117,0.018-0.24-0.008-0.343-0.083l-5.097-3.714
					c-0.206-0.15-0.251-0.439-0.101-0.645c0.15-0.206,0.439-0.251,0.645-0.101l5.097,3.714c0.206,0.15,0.251,0.439,0.101,0.645
					C149.184,164.814,149.074,164.877,148.957,164.896z"/>
			</g>
		</g>
	</g>
</g>
</svg>