<!-- Generator: Adobe Illustrator 19.2.1, SVG Export Plug-In  -->
<svg version="1.1"
	 xmlns="http://www.w3.org/2000/svg" xmlns:xlink="http://www.w3.org/1999/xlink" xmlns:a="http://ns.adobe.com/AdobeSVGViewerExtensions/3.0/"
	 x="0px" y="0px" width="84.492px" height="97.512px" viewBox="0 0 84.492 97.512"
	 style="enable-background:new 0 0 84.492 97.512;" xml:space="preserve">
<style type="text/css">
	.st0{fill:#E73D3E;stroke:#FFFFFF;stroke-width:2.8346;stroke-miterlimit:10;}
</style>
<defs>
</defs>
<path class="st0" d="M20.926,59.022c0-4.574,0-9.147,0-13.721c0-11.515,0.151-23.032-0.069-34.543
	C20.76,5.64,22.632,1.11,27.516,1.434c2.232,0.148,5.522,5.953,5.824,9.411c0.814,9.329,2.125,18.494,2.219,27.892
	c0.017,1.688,0.454,5.414,1.159,5.452c0.378-2.42,0.261-5.501,0.252-7.92c-0.018-4.601,1.925-7.244,7.342-7.228
	c5.194,0.015,6.852,3.711,7.467,7.404c0.421,2.527-0.551,5.285-0.038,9.068c2.831-5.182-1.231-15.423,9.918-13.681
	c10.23,1.599,6.401,8.939,7.056,11.658c0.83-2.351,0.234-1.68,1.046-2.991c1.323-2.134,1.5-3.683,3.35-4.055
	c1.914-0.385,9.698,6.479,9.734,7.752c0.395,14.295,0.315,21.859-0.487,36.126c-0.105,1.869-8.086,15.424-11.186,15.535
	C56.62,96.379,44.55,97.091,29.924,85.334c-1.761-1.415-4.987-1.15-6.647-2.686c-6.203-5.739-12.142-11.775-17.978-17.892
	c-1.699-1.781-3.506-4.091-3.831-6.364c-0.297-2.076,0.741-5.344,2.315-6.383c1.366-0.902,4.669,0.004,6.471,1.138
	c3.045,1.916,5.581,4.643,8.331,7.029C19.365,59.791,20.145,59.406,20.926,59.022z"/>
</svg>