<!-- Generator: Adobe Illustrator 19.1.0, SVG Export Plug-In  -->
<svg version="1.1"
	 xmlns="http://www.w3.org/2000/svg" xmlns:xlink="http://www.w3.org/1999/xlink" xmlns:a="http://ns.adobe.com/AdobeSVGViewerExtensions/3.0/"
	 x="0px" y="0px" width="229.756px" height="116.751px" viewBox="0 0 229.756 116.751"
	 style="enable-background:new 0 0 229.756 116.751;" xml:space="preserve">
<style type="text/css">
	.st0{fill:#F29100;}
	.st1{font-family:'DKAstromonkey';}
	.st2{font-size:25.5598px;}
	.st3{letter-spacing:2;}
	.st4{letter-spacing:1;}
</style>
<defs>
</defs>
<g>
	<path class="st0" d="M49.279,3.094l-1.176,20.038l-2.786-0.128l0.69,2.019l-2.402,0.205l-0.537-2.326l-6.364-0.333L35.938,3.094
		H49.279z M41.561,17.202l1.636-0.46l1.329,3.629L44.321,9.33l-4.806,0.307l1.278,10.683l1.712,0.026L41.561,17.202z"/>
	<path class="st0" d="M52.857,4.397l3.093-0.332l0.741,13.111l3.987-0.153V3.86l2.965-0.205l0.536,1.227l0.358,17.379l-1.329,0.869
		h-9.304c-0.051-0.025-1.022-1.482-1.022-1.508L52.857,4.397z"/>
	<path class="st0" d="M79.261,3.4l0.204,3.782l-6.594-0.204l0.051,2.607l4.959,1.022l0.204,2.914l-5.521,1.329l0.153,3.936
		l7.719-0.358v4.703l-11.45-0.281l-0.69-1.252L68.117,3.247L79.261,3.4z"/>
	<path class="st0" d="M95.977,2.685l0.818,0.511l0.664,8.792l-1.636,1.789l-2.862,0.205l4.498,8.485l-3.169,0.46l-4.651-8.69h-0.153
		l0.051,8.537l-5.47-0.205l0.613-19.68L95.977,2.685z M88.923,10.965l3.629,0.205l0.563-2.505l-0.767-3.22H88.77L88.923,10.965z"/>
	<path class="st0" d="M112.438,15.285l3.681-0.434l0.485,3.374l3.731,0.077l0.332-4.345l-0.869-1.202l-7.104,0.103l-0.665-1.482
		l0.179-7.821l0.537-0.588l12.268,0.23l-0.204,5.239l-2.505-0.051l-0.076-2.096l-5.623-0.077l0.128,3.118l8.076,0.435l0.256,11.987
		l-1.329,1.457l-11.706-0.46L112.438,15.285z"/>
	<path class="st0" d="M138.814,2.685l3.016,20.191l-3.937,0.255l-0.562-5.623l-2.198,0.256l-0.307,5.163l-6.186-0.051l3.169-19.68
		L138.814,2.685z M134.469,14.441h2.249l-1.584-7.31L134.469,14.441z"/>
	<path class="st0" d="M155.837,3.298l1.329,1.329l0.92,6.032l-0.92,1.585l1.688,1.278l-0.052,7.412l-1.942,2.198l-11.45-0.358
		l0.563-19.476H155.837z M151.186,10.352h1.687l0.256-2.965l-0.256-1.176l-1.789-0.051L151.186,10.352z M151.339,19.809h2.198
		l0.46-1.125l-0.358-4.549l-2.146-0.255L151.339,19.809z"/>
	<path class="st0" d="M173.575,3.4l0.204,3.782l-6.594-0.204l0.051,2.607l4.959,1.022l0.204,2.914l-5.521,1.329l0.153,3.936
		l7.719-0.358v4.703l-11.45-0.281l-0.69-1.252l-0.179-18.351L173.575,3.4z"/>
	<path class="st0" d="M190.291,2.685l0.818,0.511l0.664,8.792l-1.636,1.789l-2.862,0.205l4.498,8.485l-3.169,0.46l-4.651-8.69H183.8
		l0.051,8.537l-5.47-0.205l0.613-19.68L190.291,2.685z M183.237,10.965l3.629,0.205l0.563-2.505l-0.767-3.22h-3.578L183.237,10.965z
		"/>
	<path class="st0" d="M32.077,36.771l0.358-4.038l10.402,0.205l-0.256,4.293l-3.144-0.127l0.204,15.488l-4.498-0.077l-0.23-15.514
		L32.077,36.771z"/>
	<path class="st0" d="M45.879,34.087l3.093-0.332l0.741,13.111l3.987-0.153V33.551l2.965-0.205l0.536,1.227l0.358,17.379
		l-1.329,0.869h-9.304c-0.051-0.025-1.022-1.482-1.022-1.508L45.879,34.087z"/>
	<path class="st0" d="M72.486,33.091l1.381,2.76l-0.025,14.44l-2.761,1.687l-9.737-0.077l-0.205-18.914L72.486,33.091z
		 M66.098,49.244l1.687,0.153l0.613-0.511l0.204-11.399l-0.767-0.716l-1.584-0.358L66.098,49.244z"/>
	<path class="st0" d="M88.614,33.397l1.482,1.763l0.384,13.418l-1.201,3.118l-10.862,0.102l-0.972-3.476l0.077-12.217l1.993-3.118
		L88.614,33.397z M82.531,46.56l2.326-0.103l0.46-3.297l-0.563-5.597l-2.837,0.665L82.531,46.56z"/>
	<path class="st0" d="M105.459,44.975l3.681-0.434l0.485,3.374l3.731,0.077l0.332-4.345l-0.869-1.202l-7.104,0.103l-0.665-1.482
		l0.179-7.821l0.537-0.588l12.268,0.23l-0.204,5.239l-2.505-0.051l-0.076-2.096l-5.623-0.077l0.128,3.118l8.076,0.435l0.256,11.987
		l-1.329,1.457l-11.706-0.46L105.459,44.975z"/>
	<path class="st0" d="M132.832,33.397l1.482,1.763l0.384,13.418l-1.201,3.118l-10.862,0.102l-0.972-3.476l0.077-12.217l1.993-3.118
		L132.832,33.397z M126.749,46.56l2.326-0.103l0.46-3.297l-0.563-5.597l-2.837,0.665L126.749,46.56z"/>
	<path class="st0" d="M148.705,32.988l1.329,1.329l0.92,6.032l-0.92,1.585l1.688,1.278l-0.052,7.412l-1.942,2.198l-11.45-0.358
		l0.563-19.476H148.705z M144.054,40.042h1.687l0.256-2.965l-0.256-1.176l-1.789-0.051L144.054,40.042z M144.207,49.499h2.198
		l0.46-1.125l-0.357-4.549l-2.147-0.255L144.207,49.499z"/>
	<path class="st0" d="M167.21,32.375l0.818,0.511l0.664,8.792l-1.636,1.789l-2.862,0.205l4.498,8.485l-3.169,0.46l-4.651-8.69
		h-0.153l0.051,8.537l-5.47-0.205l0.613-19.68L167.21,32.375z M160.156,40.656l3.629,0.205l0.563-2.505l-0.767-3.22h-3.578
		L160.156,40.656z"/>
	<path class="st0" d="M183.415,33.091l0.204,3.782l-6.594-0.204l0.051,2.607l4.959,1.022l0.204,2.914l-5.521,1.329l0.153,3.936
		l7.719-0.358v4.703l-11.45-0.281l-0.69-1.252l-0.179-18.351L183.415,33.091z"/>
	<path class="st0" d="M46.341,62.065l3.016,20.191l-3.937,0.255l-0.562-5.623l-2.198,0.256l-0.307,5.163l-6.186-0.051l3.169-19.68
		L46.341,62.065z M41.995,73.822h2.249l-1.584-7.31L41.995,73.822z"/>
	<path class="st0" d="M75.734,62.781l-0.461,4.396l-5.622-0.307v2.862l4.651,0.511l-0.051,2.965l-4.754,0.358l-0.358,8.945
		l-5.214-0.613l0.409-19.22L75.734,62.781z"/>
	<path class="st0" d="M90.456,62.781l0.204,3.783l-6.594-0.205l0.051,2.607l4.959,1.022l0.204,2.914l-5.521,1.329l0.153,3.936
		l7.719-0.358v4.703l-11.45-0.281l-0.69-1.252l-0.179-18.351L90.456,62.781z"/>
	<path class="st0" d="M95.67,74.665l3.681-0.434l0.485,3.374l3.731,0.077l0.332-4.345l-0.869-1.202l-7.104,0.103l-0.665-1.482
		l0.179-7.821l0.537-0.588l12.268,0.23l-0.204,5.239l-2.505-0.051l-0.076-2.096l-5.623-0.077l0.128,3.118l8.076,0.435l0.256,11.987
		l-1.329,1.457l-11.706-0.46L95.67,74.665z"/>
	<path class="st0" d="M111.875,66.461l0.358-4.038l10.402,0.205l-0.256,4.293l-3.144-0.127l0.204,15.488l-4.498-0.077l-0.23-15.514
		L111.875,66.461z"/>
	<path class="st0" d="M133.984,62.065L137,82.256l-3.937,0.255l-0.562-5.623l-2.198,0.256l-0.307,5.163l-6.186-0.051l3.169-19.68
		L133.984,62.065z M129.639,73.822h2.249l-1.584-7.31L129.639,73.822z"/>
	<path class="st0" d="M162.712,62.781l0.204,3.783l-6.594-0.205l0.051,2.607l4.959,1.022l0.204,2.914l-5.521,1.329l0.153,3.936
		l7.719-0.358v4.703l-11.45-0.281l-0.69-1.252l-0.179-18.351L162.712,62.781z"/>
	<path class="st0" d="M189.677,63.087l1.482,1.763l0.384,13.418l-1.201,3.118l-10.862,0.102l-0.972-3.476l0.077-12.217l1.993-3.118
		L189.677,63.087z M183.594,76.25l2.326-0.103l0.46-3.297l-0.563-5.597l-2.837,0.665L183.594,76.25z"/>
	<path class="st0" d="M10.939,91.755l3.016,20.191l-3.937,0.255l-0.562-5.623l-2.198,0.256l-0.307,5.163l-6.186-0.051l3.169-19.68
		L10.939,91.755z M6.594,103.512h2.249l-1.584-7.31L6.594,103.512z"/>
	<path class="st0" d="M23.974,92.267l4.243,13.035l-1.125-13.137l3.067-0.409l0.818,18.964l-3.886,0.153L22.9,97.532l-0.204,13.853
		l-5.163-0.409l0.563-18.198L23.974,92.267z"/>
	<path class="st0" d="M40.18,92.88l-1.022,18.964l-3.681,0.358l-0.92-19.169L40.18,92.88z"/>
	<path class="st0" d="M49.381,92.778l1.38,14.057l1.381-14.057l4.907,0.153l-2.965,18.402l-5.776,0.205l-4.55-18.862L49.381,92.778z
		"/>
	<path class="st0" d="M71.771,92.471l0.204,3.783l-6.594-0.205l0.051,2.607l4.959,1.022l0.204,2.914l-5.521,1.329l0.153,3.936
		l7.719-0.358v4.703l-11.45-0.281l-0.69-1.252l-0.179-18.351L71.771,92.471z"/>
	<path class="st0" d="M88.486,91.755l0.818,0.511l0.664,8.792l-1.636,1.789l-2.862,0.205l4.498,8.485l-3.169,0.46l-4.651-8.69
		h-0.153l0.051,8.537l-5.47-0.205l0.613-19.68L88.486,91.755z M81.433,100.036l3.629,0.205l0.563-2.505l-0.767-3.22h-3.578
		L81.433,100.036z"/>
	<path class="st0" d="M93.957,104.355l3.681-0.434l0.485,3.374l3.731,0.077l0.332-4.345l-0.869-1.202l-7.104,0.103l-0.665-1.482
		l0.179-7.821l0.537-0.588l12.268,0.23l-0.204,5.239l-2.505-0.051l-0.076-2.096l-5.623-0.077l0.128,3.118l8.076,0.435l0.256,11.987
		l-1.329,1.457l-11.706-0.46L93.957,104.355z"/>
	<path class="st0" d="M120.334,91.755l3.016,20.191l-3.937,0.255l-0.562-5.623l-2.198,0.256l-0.307,5.163l-6.186-0.051l3.169-19.68
		L120.334,91.755z M115.988,103.512h2.249l-1.584-7.31L115.988,103.512z"/>
	<path class="st0" d="M138.046,91.755l0.818,0.511l0.664,8.792l-1.636,1.789l-2.862,0.205l4.498,8.485l-3.169,0.46l-4.651-8.69
		h-0.153l0.051,8.537l-5.47-0.205l0.613-19.68L138.046,91.755z M130.992,100.036l3.629,0.205l0.563-2.505l-0.767-3.22h-3.578
		L130.992,100.036z"/>
	<path class="st0" d="M148.73,92.88l-1.022,18.964l-3.681,0.358l-0.92-19.169L148.73,92.88z"/>
	<path class="st0" d="M161.153,91.755l3.016,20.191l-3.937,0.255l-0.562-5.623l-2.198,0.256l-0.307,5.163l-6.186-0.051l3.169-19.68
		L161.153,91.755z M156.808,103.512h2.249l-1.584-7.31L156.808,103.512z"/>
	<path class="st0" d="M174.188,92.267l4.243,13.035l-1.125-13.137l3.067-0.409l0.818,18.964l-3.886,0.153l-4.191-13.341
		l-0.204,13.853l-5.163-0.409l0.563-18.198L174.188,92.267z"/>
	<path class="st0" d="M183.979,96.151l0.358-4.038l10.402,0.205l-0.256,4.293l-3.144-0.127l0.204,15.488l-4.498-0.077l-0.23-15.514
		L183.979,96.151z"/>
	<path class="st0" d="M209.461,92.471l0.204,3.783l-6.594-0.205l0.051,2.607l4.959,1.022l0.204,2.914l-5.521,1.329l0.153,3.936
		l7.719-0.358v4.703l-11.45-0.281l-0.69-1.252l-0.179-18.351L209.461,92.471z"/>
	<path class="st0" d="M222.291,98.835l-0.103-1.814l-3.782,0.485l0.179,2.684l-4.319,0.409l0.869-7.335l3.041-1.073L225,92.573
		l1.278,1.201l0.664,7.387l-3.526,2.709l-0.741,2.3l-4.243,0.153l-0.153-4.089L222.291,98.835z M222.062,107.448l0.307,0.409
		l0.307,2.964l-0.665,1.074l-2.606,0.102l-1.125-0.46v-3.016l0.972-1.175L222.062,107.448z"/>
</g>
</svg>