<!-- Generator: Adobe Illustrator 19.1.0, SVG Export Plug-In  -->
<svg version="1.1"
	 xmlns="http://www.w3.org/2000/svg" xmlns:xlink="http://www.w3.org/1999/xlink" xmlns:a="http://ns.adobe.com/AdobeSVGViewerExtensions/3.0/"
	 x="0px" y="0px" width="305.802px" height="30.19px" viewBox="0 0 305.802 30.19"
	 style="enable-background:new 0 0 305.802 30.19;" xml:space="preserve">
<style type="text/css">
	.st0{fill:#FFFFFF;}
	.st1{font-family:'DKAstromonkey';}
	.st2{font-size:27.8764px;}
	.st3{letter-spacing:7;}
	.st4{letter-spacing:6;}
	.st5{letter-spacing:5;}
</style>
<defs>
</defs>
<g>
	<path class="st0" d="M6.746,19.903l-0.78,5.102l-5.13,0.251L5.102,3.26l8.057,0.195l4.768,21.048l-3.597,0.446l-1.979-5.38
		L6.746,19.903z M7.304,16.642l4.237,0.251L8.503,7.08L7.304,16.642z"/>
	<path class="st0" d="M33.87,3.483l4.628,14.218L37.271,3.372l3.346-0.446l0.892,20.686l-4.237,0.167L32.699,9.226l-0.223,15.11
		l-5.632-0.446l0.613-19.849L33.87,3.483z"/>
	<path class="st0" d="M56.562,4.152l-1.115,20.686l-4.015,0.39L50.428,4.32L56.562,4.152z"/>
	<path class="st0" d="M71.614,4.041l1.505,15.333l1.506-15.333l5.353,0.167L76.743,24.28l-6.3,0.223L65.48,3.929L71.614,4.041z"/>
	<path class="st0" d="M101.052,3.707l0.223,4.125l-7.192-0.223l0.056,2.843l5.408,1.115l0.224,3.178l-6.021,1.45l0.167,4.293
		l8.419-0.39v5.129l-12.489-0.307l-0.753-1.366L88.896,3.539L101.052,3.707z"/>
	<path class="st0" d="M124.3,2.926l0.893,0.558l0.725,9.59l-1.784,1.952l-3.122,0.223l4.906,9.256l-3.457,0.501l-5.073-9.479h-0.168
		l0.056,9.312l-5.966-0.223l0.67-21.466L124.3,2.926z M116.605,11.958l3.959,0.223l0.613-2.732l-0.836-3.513h-3.903L116.605,11.958z
		"/>
	<path class="st0" d="M135.283,16.669l4.015-0.474l0.529,3.68l4.07,0.083l0.362-4.739l-0.947-1.31l-7.75,0.111l-0.726-1.617
		l0.195-8.531l0.586-0.641l13.381,0.251l-0.223,5.715l-2.732-0.056l-0.083-2.286l-6.134-0.083l0.14,3.401l8.81,0.474l0.278,13.075
		l-1.449,1.589l-12.769-0.501L135.283,16.669z"/>
	<path class="st0" d="M169.069,2.926l3.29,22.023l-4.294,0.279l-0.613-6.133l-2.397,0.279l-0.334,5.631l-6.747-0.056l3.457-21.466
		L169.069,2.926z M164.33,15.75h2.453l-1.729-7.973L164.33,15.75z"/>
	<path class="st0" d="M193.405,2.926l0.893,0.558l0.725,9.59l-1.784,1.952l-3.122,0.223l4.906,9.256l-3.457,0.501l-5.073-9.479
		h-0.168l0.056,9.312l-5.966-0.223l0.67-21.466L193.405,2.926z M185.711,11.958l3.959,0.223l0.613-2.732l-0.836-3.513h-3.903
		L185.711,11.958z"/>
	<path class="st0" d="M210.075,4.152l-1.115,20.686l-4.015,0.39L203.941,4.32L210.075,4.152z"/>
	<path class="st0" d="M228.642,2.926l3.29,22.023l-4.294,0.279l-0.613-6.133l-2.397,0.279l-0.334,5.631l-6.747-0.056l3.457-21.466
		L228.642,2.926z M223.902,15.75h2.453l-1.729-7.973L223.902,15.75z"/>
	<path class="st0" d="M247.876,3.483l4.628,14.218l-1.227-14.329l3.346-0.446l0.892,20.686l-4.237,0.167l-4.572-14.552l-0.223,15.11
		l-5.632-0.446l0.613-19.849L247.876,3.483z"/>
	<path class="st0" d="M263.569,7.721l0.391-4.405l11.347,0.223l-0.279,4.684l-3.429-0.14l0.223,16.894l-4.906-0.083l-0.251-16.922
		L263.569,7.721z"/>
	<path class="st0" d="M296.381,3.707l0.223,4.125l-7.192-0.223l0.056,2.843l5.408,1.115l0.224,3.178l-6.021,1.45l0.167,4.293
		l8.419-0.39v5.129l-12.489-0.307l-0.753-1.366l-0.195-20.016L296.381,3.707z"/>
</g>
</svg>