<!-- Generator: Adobe Illustrator 19.2.1, SVG Export Plug-In  -->
<svg version="1.1"
	 xmlns="http://www.w3.org/2000/svg" xmlns:xlink="http://www.w3.org/1999/xlink" xmlns:a="http://ns.adobe.com/AdobeSVGViewerExtensions/3.0/"
	 x="0px" y="0px" width="356.951px" height="429px" viewBox="0 0 356.951 429" style="enable-background:new 0 0 356.951 429;"
	 xml:space="preserve">
<style type="text/css">
	.st0{fill:#E73D3E;}
</style>
<defs>
</defs>
<path class="st0" d="M0,0c0,13.071,19.57,416,19.57,429c109.851,0,208.744,0,318.595,0c0-13,18.787-415.929,18.787-429
	C346.646,0,9.915,0,0,0z M174.857,31.956c1.518-1.539,1.301-0.895,2.883-2.413c0.289,0,1.631-6.041,1.919-6.041
	c1.89,1.927,2.645,3.176,4.424,5.136c2.571,2.833,3.607,10.733-0.258,12.987c-0.36,0.21-0.452,0.813-0.456,1.141
	c-0.035,2.661-0.02,5.233-0.02,8.233c-2.621,0-5.093,0-7.785,0c0-3,0.025-5.358-0.025-7.932c-0.008-0.416-0.112-1.064-0.576-1.308
	C170.022,39.158,172.201,34.649,174.857,31.956z M135.223,58c29,0,59,0,89,0c0,10,0,21,0,31c-30,0-60,0-89,0
	C135.223,79,135.223,68,135.223,58z M120.223,96c40,0,79,0,118,0c0,2,0,4.584,0,6.583c0,4.069,0.274,8.138,0.215,12.205
	c-0.01,0.666-0.094,1.606-0.539,1.943c-2.739,2.072-5.549,3.951-8.304,6c-4.64,3.451-10.725,2.678-15.241-1.684
	c-3.778-3.648-8.15-5.707-13.417-5.588c-4.462,0.101-8.251,1.83-11.548,4.816c-2.494,2.259-5.1,4.271-8.476,4.591
	c-3.357,0.318-6.307-0.754-9.039-2.967c-2.545-2.062-5.214-4.276-8.183-5.383c-6.926-2.583-13.295-0.766-18.614,4.445
	c-5.098,4.994-12.155,5.211-17.557,0.248c-2.137-1.963-4.299-3.234-7.299-4.82C120.223,109.755,120.223,103,120.223,96z
	 M120.223,124.532c2,0.825,2.719,1.477,3.845,2.502c7.019,6.388,17.329,6.446,24.242-0.027c2.751-2.576,5.753-4.671,9.533-4.642
	c3.156,0.025,5.989,1.263,8.462,3.506c2.825,2.562,5.83,4.79,9.714,5.529c5.401,1.028,10.225-0.002,14.635-3.407
	c2.152-1.662,4.205-3.678,6.624-4.702c5.015-2.121,9.478-0.399,13.347,3.303c7.52,7.194,17.702,7.056,25.223-0.436
	c0.7-0.697,1.373-1.253,2.373-2.131c0,4.706,0,9.036,0,13.365c0,4.36,0,8.607,0,13.607c-39,0-78,0-118,0
	C120.223,142,120.223,133.279,120.223,124.532z M168.195,395c-36.917,0-70.152,0-107.069,0c0-1-6.577-26-6.577-27
	c3.332,0,116.496,0,119.959,0C174.508,369,168.195,394,168.195,395z M174.508,230c0,0-0.118,0.709-0.32,1.59
	c-1.283,24.54-5.994,105.41-5.994,108.41c-36.917,0-70.152,0-107.069,0c0-3-4.907-83.872-6.244-108.411
	c-0.21-0.88-0.333-1.589-0.333-1.589c0.054,0,0.138,0,0.249,0c-0.159-3-0.249-4-0.249-5c3.332,0,116.496,0,119.959,0
	c0,1-0.087,2-0.24,5C174.374,230,174.455,230,174.508,230z M298.811,390c-29.167,0-55.424,0-84.592,0c0-5-5.196-162-5.196-167
	c2.632,0,92.039,0,94.775,0C303.799,228,298.811,385,298.811,390z M314.223,191.518c-84,0-187,5.237-270,5.237
	c0-0.792,0-27.755,0-29.755c7,0,262,0,270,0C314.223,169,314.223,190.726,314.223,191.518z"/>
</svg>