<!-- Generator: Adobe Illustrator 19.2.1, SVG Export Plug-In  -->
<svg version="1.1"
	 xmlns="http://www.w3.org/2000/svg" xmlns:xlink="http://www.w3.org/1999/xlink" xmlns:a="http://ns.adobe.com/AdobeSVGViewerExtensions/3.0/"
	 x="0px" y="0px" width="33px" height="23px" viewBox="0 0 33 23" style="enable-background:new 0 0 33 23;" xml:space="preserve">
<style type="text/css">
	.st0{fill:#F29100;}
</style>
<defs>
</defs>
<g>
	<g>
		<polygon class="st0" points="17.486,11.977 15.363,12.849 15.59,16.792 18.168,16.641 18.51,15.541 17.865,12.356 		"/>
		<path class="st0" d="M0,0c0,1,1.809,22,1.809,23c10.156,0,19.298,0,29.454,0C31.263,22,33,1,33,0C32.047,0,0.917,0,0,0z
			 M20.254,18.574l-7.394,0.19l-0.569-0.455l-0.569-6.825l3.299-7.28l3.564,0.038l-2.654,5.422l3.45-0.417l1.024,0.758l0.872,6.408
			L20.254,18.574z"/>
	</g>
</g>
</svg>