<!-- Generator: Adobe Illustrator 19.2.1, SVG Export Plug-In  -->
<svg version="1.1"
	 xmlns="http://www.w3.org/2000/svg" xmlns:xlink="http://www.w3.org/1999/xlink" xmlns:a="http://ns.adobe.com/AdobeSVGViewerExtensions/3.0/"
	 x="0px" y="0px" width="901.194px" height="1083px" viewBox="0 0 901.194 1083" style="enable-background:new 0 0 901.194 1083;"
	 xml:space="preserve">
<style type="text/css">
	.st0{fill:#E73D3E;}
</style>
<defs>
</defs>
<path class="st0" d="M0,0c0,33,49.408,1050,49.408,1083c277.341,0,527.014,0,804.355,0c0-33,47.431-1050,47.431-1083
	C875.175,0,25.031,0,0,0z M552.958,85c0,8-10.734,237-10.734,245c-62.768,0-119.273,0-182.042,0c0-8-11.182-237-11.182-245
	C354.665,85,547.069,85,552.958,85z M424.641,996c-93.205,0-177.111,0-270.316,0c0-2-16.604-65-16.604-67
	c8.412,0,294.116,0,302.86,0C440.581,931,424.641,994,424.641,996z M440.581,581c0,0.272-0.297,1.931-0.807,4.155
	C436.534,647.111,424.641,851,424.641,859c-93.205,0-177.111,0-270.316,0c0-8-12.39-211.894-15.764-273.847
	c-0.531-2.223-0.84-3.881-0.84-4.153c0.137,0,0.35,0,0.629,0c-0.402-7.525-0.629-12-0.629-13c8.412,0,294.116,0,302.86,0
	c0,1-0.219,5.475-0.604,13C440.243,581,440.445,581,440.581,581z M754.407,984c-73.638,0-139.93,0-213.568,0
	c0-13-13.118-407-13.118-420c6.646,0,232.371,0,239.279,0C767,577,754.407,971,754.407,984z M791.625,483.777
	c-210,0-472,13.223-682,13.223c0-2,0-72,0-74c19,0,662,0,682,0C791.625,425,791.625,481.777,791.625,483.777z"/>
</svg>