<!-- Generator: Adobe Illustrator 19.1.0, SVG Export Plug-In  -->
<svg version="1.1"
	 xmlns="http://www.w3.org/2000/svg" xmlns:xlink="http://www.w3.org/1999/xlink" xmlns:a="http://ns.adobe.com/AdobeSVGViewerExtensions/3.0/"
	 x="0px" y="0px" width="196.89px" height="30.19px" viewBox="0 0 196.89 30.19" style="enable-background:new 0 0 196.89 30.19;"
	 xml:space="preserve">
<style type="text/css">
	.st0{fill:#FFFFFF;}
	.st1{font-family:'DKAstromonkey';}
	.st2{font-size:27.8764px;}
	.st3{letter-spacing:7;}
	.st4{letter-spacing:5;}
	.st5{letter-spacing:6;}
</style>
<defs>
</defs>
<g>
	<path class="st0" d="M10.761,2.981l1.84,1.06l1.004,5.798l-5.13,0.558L7.192,7.498L5.799,7.776l0.78,13.438l2.732-0.502
		l-0.391-6.245l5.074-0.39l1.059,5.575l-1.84,5.241L3.178,25.451l-1.84-1.283L0.836,6.717l2.23-3.067L10.761,2.981z"/>
	<path class="st0" d="M36.155,4.041l1.617,1.923L38.19,20.6l-1.31,3.401l-11.849,0.111l-1.06-3.792l0.084-13.325l2.175-3.401
		L36.155,4.041z M29.521,18.398l2.537-0.111l0.502-3.596l-0.613-6.105L28.852,9.31L29.521,18.398z"/>
	<path class="st0" d="M54.136,3.483l4.628,14.218L57.537,3.372l3.346-0.446l0.892,20.686l-4.237,0.167L52.965,9.226l-0.223,15.11
		L47.11,23.89l0.613-19.849L54.136,3.483z"/>
	<path class="st0" d="M74.793,4.041l1.505,15.333l1.506-15.333l5.353,0.167L79.922,24.28l-6.3,0.223L68.659,3.929L74.793,4.041z"/>
	<path class="st0" d="M98.208,4.152l-1.115,20.686l-4.015,0.39L92.074,4.32L98.208,4.152z"/>
	<path class="st0" d="M119.506,3.707l1.506,3.011l-0.028,15.751l-3.011,1.84l-10.621-0.083l-0.224-20.63L119.506,3.707z
		 M112.537,21.325l1.84,0.167l0.669-0.557l0.223-12.434l-0.836-0.781l-1.729-0.39L112.537,21.325z"/>
	<path class="st0" d="M140.441,2.926l3.29,22.023l-4.294,0.279l-0.613-6.133l-2.397,0.279l-0.334,5.631l-6.747-0.056l3.457-21.466
		L140.441,2.926z M135.702,15.75h2.453l-1.729-7.973L135.702,15.75z"/>
	<path class="st0" d="M164.164,3.707l1.506,3.011l-0.028,15.751l-3.011,1.84l-10.621-0.083l-0.224-20.63L164.164,3.707z
		 M157.195,21.325l1.84,0.167l0.669-0.557l0.223-12.434l-0.836-0.781l-1.729-0.39L157.195,21.325z"/>
	<path class="st0" d="M186.771,4.041l1.617,1.923l0.418,14.636l-1.31,3.401l-11.849,0.111l-1.06-3.792l0.084-13.325l2.175-3.401
		L186.771,4.041z M180.137,18.398l2.537-0.111l0.502-3.596l-0.613-6.105l-3.095,0.725L180.137,18.398z"/>
</g>
</svg>