<!-- Generator: Adobe Illustrator 19.1.0, SVG Export Plug-In  -->
<svg version="1.1"
	 xmlns="http://www.w3.org/2000/svg" xmlns:xlink="http://www.w3.org/1999/xlink" xmlns:a="http://ns.adobe.com/AdobeSVGViewerExtensions/3.0/"
	 x="0px" y="0px" width="220.965px" height="288.203px" viewBox="0 0 220.965 288.203"
	 style="enable-background:new 0 0 220.965 288.203;" xml:space="preserve">
<style type="text/css">
	.st0{fill:#009EE2;}
	.st1{fill:#FFFFFF;}
	.st2{fill:#E73D3E;}
	.st3{fill:#F29100;}
</style>
<defs>
</defs>
<g>
	<path class="st0" d="M77.079,33.053c4.84-3.893,9.747-11.043,12.411-17.024C92.852,8.482,85.838,4.698,80.258,0l1.283,7.09
		c0.95-0.172,1.323,0.069,1.256,0.214c-0.984,2.122,1.104,3.726-0.698,7.878c-3.534,8.141-10.292,13.798-16.695,16.698
		c0.994-5.147,3.708-14.67,10.79-21.495c2.684-2.586,4.633-3.165,5.346-3.295L80.258,0l-0.001,0
		c-2.778,0.503-5.896,2.146-9.062,5.196c-12.416,11.964-13.521,29.89-13.521,29.89c-5.742-13.534-13.51-20.831-22.976-23.277
		c-1.808-0.467-4.565-1.761-5.395-0.2c-1.114,2.096-5.221,8.315-7.298,15.368c-2.296,7.798,11.958,10.836,19.172,12.575L0,47.006
		L6.212,81.32l6.869-1.243l5.47,48.438l54.258-9.822l52.035-9.42l-11.11-44.38l9.315-4.722l-6.212-34.314L77.079,33.053z
		 M32.894,18.785c6.542,1.69,11.856,6.574,16.161,14.878c-6.912-0.857-18.543,1.447-21.725-4.969"/>
	<path id="XMLID_21_" class="st1" d="M87.819,44.82L66.33,50.119c-4.986,1.23-8.156,6.108-7.383,11.093
		c-2.318-1.85-5.434-2.657-8.519-1.896l-13.813,3.406c-5.27,1.3-8.518,6.674-7.218,11.944l5.768,9.906
		c3.179,5.121,6.674,8.518,11.944,7.218l10.679-2.633c3.324-0.82,5.84-3.262,6.921-6.276c2.18,3.587,6.527,5.53,10.804,4.475
		l18.076-4.458c5.27-1.3,8.518-6.674,7.218-11.944l-1.044-18.917C98.464,46.768,93.089,43.52,87.819,44.82z"/>
	<g>
		<circle id="XMLID_20_" class="st0" cx="55.818" cy="83.237" r="3.503"/>
		<circle id="XMLID_19_" class="st0" cx="85.005" cy="75.003" r="3.503"/>
	</g>
	<path id="XMLID_4_" class="st2" d="M85.456,91.596c-0.16-0.015-0.585,0.174-1.14,0.476c-0.061-0.078-0.111-0.136-0.147-0.168
		c-0.352-0.125-3.891,2.076-5.399,3.291c-3.156,2.543-4.963,5.171-4.963,5.171c-1.041,0.086-4.218,1.108-5.115,1.644
		c0.012,0.037,0.029,0.091,0.051,0.159c-0.032-0.101-0.051-0.159-0.051-0.159s-2.999-1.083-7.046-1.31
		c-1.933-0.108-6.092,0.166-6.305,0.472c-0.011,0.046-0.018,0.123-0.022,0.222c-0.627,0.078-1.082,0.172-1.203,0.278
		c-0.137,0.587,0.299,5.657,1.004,7.964c0.705,2.306,3.87,6.97,4.326,7.041c0.113,0.017,0.508-0.171,1.057-0.484
		c0.105,0.104,0.186,0.167,0.236,0.175c0.463,0.071,5.584-3.255,6.834-4.616c1.194-1.3,2.149-2.931,2.795-4.526
		c0.012,0.037,0.023,0.071,0.032,0.1c1.082,0.025,4.25-0.994,5.115-1.644c-0.009-0.029-0.02-0.063-0.032-0.1
		c1.455,0.92,3.181,1.689,4.91,2.049c1.81,0.377,7.909,0.096,8.244-0.232c0.036-0.035,0.065-0.133,0.09-0.279
		c0.628-0.065,1.06-0.143,1.141-0.223c0.33-0.323,0.183-5.957-0.588-8.243C88.51,96.367,85.91,91.993,85.456,91.596z
		 M70.289,106.972c0.01,0.031,0.019,0.06,0.028,0.089C70.308,107.032,70.299,107.003,70.289,106.972z M68.786,102.299
		c0.017,0.052,0.035,0.109,0.055,0.171C68.821,102.408,68.802,102.349,68.786,102.299z M68.875,102.576
		c0.018,0.057,0.038,0.117,0.058,0.181C68.913,102.694,68.894,102.633,68.875,102.576z M68.978,102.895
		c0.07,0.218,0.149,0.462,0.232,0.723C69.126,103.356,69.048,103.112,68.978,102.895z M69.247,103.733
		c0.058,0.181,0.118,0.368,0.179,0.558C69.366,104.101,69.306,103.914,69.247,103.733z M69.552,104.679
		c0.019,0.06,0.038,0.119,0.058,0.179C69.59,104.798,69.571,104.739,69.552,104.679z M69.853,105.615
		c0.013,0.04,0.026,0.079,0.038,0.119C69.878,105.695,69.865,105.655,69.853,105.615z M74.66,103.014
		c0.06,0.185,0.119,0.371,0.178,0.553C74.779,103.385,74.719,103.199,74.66,103.014z M73.857,100.517
		c0.02,0.062,0.045,0.141,0.076,0.237C73.903,100.662,73.878,100.582,73.857,100.517z M73.962,100.845
		c0.025,0.078,0.053,0.165,0.083,0.258C74.015,101.011,73.987,100.924,73.962,100.845z M74.06,101.149
		c0.024,0.073,0.048,0.149,0.074,0.23C74.108,101.299,74.083,101.222,74.06,101.149z M74.281,101.838
		c0.02,0.063,0.041,0.127,0.062,0.192C74.322,101.965,74.302,101.901,74.281,101.838z M74.422,102.275
		c0,0.001,0.001,0.003,0.001,0.004C74.423,102.278,74.422,102.277,74.422,102.275z"/>
	<polygon id="XMLID_3_" class="st2" points="15.928,108.325 17.17,119.328 59.614,111.644 58.369,104.768 	"/>
	<polygon id="XMLID_2_" class="st2" points="87.753,98.397 89.337,105.204 122.495,99.201 120.872,90.759 	"/>
	<path class="st3" d="M73.14,106.985L73.14,106.985c-1.504,0.503-3.147-0.316-3.65-1.82l-0.219-0.656
		c-0.503-1.504,0.316-3.147,1.82-3.65l0,0c1.504-0.503,3.147,0.316,3.65,1.82l0.219,0.656
		C75.463,104.839,74.645,106.482,73.14,106.985z"/>
</g>
<path id="XMLID_1_" class="st0" d="M57.035,116.375l-4.454,152.641c-0.428-0.017-0.858-0.029-1.293-0.029
	c-9.718,0-17.595,4.302-17.595,9.608c0,5.293,7.838,9.585,17.522,9.607l0,0.001h17.67V115.83l2.614-0.12l117.313,35.518
	l-3.11,32.607h17.669c9.718,0,17.595-4.302,17.595-9.608c0-5.306-7.878-9.608-17.595-9.608c-0.466,0-0.926,0.013-1.382,0.032
	l1.344-25.805L93.943,115.171L57.035,116.375z"/>
</svg>