<!-- Generator: Adobe Illustrator 19.2.1, SVG Export Plug-In  -->
<svg version="1.1"
	 xmlns="http://www.w3.org/2000/svg" xmlns:xlink="http://www.w3.org/1999/xlink" xmlns:a="http://ns.adobe.com/AdobeSVGViewerExtensions/3.0/"
	 x="0px" y="0px" width="123px" height="125.402px" viewBox="0 0 123 125.402" style="enable-background:new 0 0 123 125.402;"
	 xml:space="preserve">
<style type="text/css">
	.st0{fill:none;stroke:#373639;stroke-width:4.252;stroke-miterlimit:10;}
	.st1{fill:none;stroke:#373639;stroke-width:4;stroke-miterlimit:10;}
</style>
<defs>
</defs>
<g>
	<path class="st0" d="M90.5,5.902h1.908c-0.556-1-0.908-1.355-1.908-2V5.902z"/>
	<path class="st1" d="M121,38.402H84.019c5.496-2,10.507-10.35,14.222-15.801c4.152-6.093-1.508-11.513-5.83-16.56
		c-2.696,0.027-5.833,0.193-9.226,2.453c-14.456,9.633-18.768,26.671-18.768,26.671c-3.264-14.447-9.654-23.341-18.6-27.466
		c-1.708-0.788-4.209-2.698-5.312-1.3c-1.481,1.878-6.668,8.391-9.993,15.011c-3.676,7.318,9.91,14.992,16.749,16.992H2v36h10.136
		l-3.27,49h55.55h53.275l-4.911-47.576L121,71.23V38.402z M86.16,13.468c3.124-2.081,2.84-2.32,4.84-2.32v0.013
		c0,0,2.351,0.306,2.258,0.437c-1.357,1.927,0.952,3.892-1.58,7.684c-4.964,7.436-12.944,11.831-19.812,13.557
		C73.774,27.916,77.914,18.963,86.16,13.468z M35.483,22.849l7.294-8.825c6.182,2.85,10.573,8.644,13.351,17.649
		C49.431,29.585,37.487,29.781,35.483,22.849z"/>
	<path class="st0" d="M92.408,5.844c0.001,0.001,0.002,0.002,0.003,0.004c0.233-0.002,0.464-0.004,0.69-0.004H92.408z"/>
</g>
</svg>