<!-- Generator: Adobe Illustrator 19.2.1, SVG Export Plug-In  -->
<svg version="1.1"
	 xmlns="http://www.w3.org/2000/svg" xmlns:xlink="http://www.w3.org/1999/xlink" xmlns:a="http://ns.adobe.com/AdobeSVGViewerExtensions/3.0/"
	 x="0px" y="0px" width="471.577px" height="618px" viewBox="0 0 471.577 618" style="enable-background:new 0 0 471.577 618;"
	 xml:space="preserve">
<style type="text/css">
	.st0{fill:#E73D3E;}
</style>
<defs>
</defs>
<path class="st0" d="M5.392,91L0,618h417.572l54.005-527H5.392z M216.509,216.027c3.426-3.473,2.938-2.02,6.508-5.446
	c0.651,0,3.681-13.636,4.332-13.636c4.265,4.351,5.971,7.169,9.986,11.594c5.803,6.394,8.141,24.227-0.583,29.314
	c-0.813,0.474-1.02,1.328-1.03,2.069c-0.08,6.006-0.045,12.078-0.045,18.078c-5.916,0-11.496,0-17.573,0
	c0-6,0.056-11.588-0.057-17.397c-0.018-0.939-0.252-2.148-1.3-2.7C205.595,232.031,210.514,222.105,216.509,216.027z M126.723,274
	c68,0,134,0,201,0c0,24,0,47,0,71c-67,0-133,0-201,0C126.723,321,126.723,298,126.723,274z M360.723,454.016
	c0,9.842,0,18.984,0,29.984c-89,0-178,0-267,0c0-20,0-39.272,0-59.013c3,1.861,5.871,3.334,8.414,5.647
	c15.844,14.419,38.982,14.55,54.586-0.061c6.209-5.814,12.919-10.544,21.452-10.477c7.123,0.056,13.485,2.851,19.067,7.914
	c6.376,5.783,13.143,10.811,21.91,12.48c12.19,2.32,23.07-0.004,33.026-7.69c4.858-3.75,9.487-8.303,14.948-10.613
	c11.32-4.788,21.39-0.901,30.125,7.455c16.974,16.238,40.549,15.927,57.524-0.984c1.58-1.574,3.948-2.828,5.948-4.81
	C360.723,434.47,360.723,444.243,360.723,454.016z M360.614,402.994c-0.022,1.503-0.508,3.625-1.512,4.385
	c-6.181,4.677-12.673,8.918-18.891,13.543c-10.473,7.789-24.282,6.044-34.476-3.8c-8.527-8.235-18.433-12.882-30.32-12.612
	c-10.071,0.229-18.643,4.131-26.083,10.871c-5.63,5.1-11.521,9.64-19.14,10.363c-7.578,0.718-14.241-1.702-20.406-6.698
	c-5.745-4.655-11.771-9.651-18.473-12.149c-15.633-5.829-30.009-1.729-42.015,10.033c-11.506,11.273-27.169,11.762-39.364,0.559
	c-4.824-4.432-10.209-7.3-16.209-10.88c0-14.976,0-30.607,0-45.607c89,0,178,0,267,0c0,5,0,9.932,0,14.445
	C360.723,384.628,360.747,393.813,360.614,402.994z"/>
<polygon class="st0" points="333.723,81 5.392,81 337.723,0 "/>
</svg>