<!-- Generator: Adobe Illustrator 19.2.1, SVG Export Plug-In  -->
<svg version="1.1"
	 xmlns="http://www.w3.org/2000/svg" xmlns:xlink="http://www.w3.org/1999/xlink" xmlns:a="http://ns.adobe.com/AdobeSVGViewerExtensions/3.0/"
	 x="0px" y="0px" width="33px" height="23.02px" viewBox="0 0 33 23.02" style="enable-background:new 0 0 33 23.02;"
	 xml:space="preserve">
<style type="text/css">
	.st0{fill:#F29100;}
</style>
<defs>
</defs>
<path class="st0" d="M0,0c0,0.751,1.809,22.322,1.809,23.02c10.156,0,19.298,0,29.454,0C31.263,22.322,33,0.751,33,0
	C32.047,0,0.917,0,0,0z M20.176,18.752l-8.495,0.228v-5.043l2.353,0.265l-0.075,1.403l2.844,0.228l0.455-3.337l-1.251-0.948
	l-3.811-0.228l-0.341-6.863l8.038-0.417l0.152,2.806l-5.46-0.228l0.133,2.01l5.706,0.379l0.89,7.052L20.176,18.752z"/>
</svg>