<!-- Generator: Adobe Illustrator 19.2.1, SVG Export Plug-In  -->
<svg version="1.1"
	 xmlns="http://www.w3.org/2000/svg" xmlns:xlink="http://www.w3.org/1999/xlink" xmlns:a="http://ns.adobe.com/AdobeSVGViewerExtensions/3.0/"
	 x="0px" y="0px" width="381.815px" height="279.284px" viewBox="0 0 381.815 279.284"
	 style="enable-background:new 0 0 381.815 279.284;" xml:space="preserve">
<style type="text/css">
	.st0{fill:#FFFFFF;}
</style>
<defs>
</defs>
<g>
	<path class="st0" d="M134.452,219.384c5.391-14.049,42.274-72.602,47.253-85.121c0.471-1.185,1.947-2.056,2.956-3.072
		c0.948,0.986,39.481,74.997,42.125,83.149c0.455,1.402,0.738,2.702-0.769,4.043c-1.542,1.372-2.578,0.582-3.665-0.163
		c-2.544-1.745-74.803-2.103-78.478,0.623C142.762,219.667,135.133,220.034,134.452,219.384z"/>
</g>
<g>
	<path class="st0" d="M381.018,163.891c-3.931-26.215-19.541-44.347-45.402-52.629c-12.556-4.021-25.156-3.5-37.99,0.084
		c0.273-3.38,0.857-6.457,0.676-9.488c-0.193-3.227-0.979-6.442-1.73-9.608c-4.342-18.289-22.079-30.636-40.289-29.734
		c-3.024,0.15-6.968,1.403-8.845-0.02c-2.241-1.7-2.688-5.742-3.959-8.749c-13.044-30.849-36.597-48.623-69.367-52.927
		c-19.368-2.544-38.358,0.728-55.587,11.394c-15.759,9.757-27.387,22.755-34.86,39.76c-7.721,17.569-8.632,35.572-4.911,54.099
		c0.207,1.028-0.189,2.176-0.21,2.376c-8.151,0.366-15.883,0.215-23.48,1.152c-18.445,2.276-32.937,11.548-43.45,26.722
		c-9.951,14.362-13.224,30.214-10.9,47.713c4.044,30.455,31.301,54.84,61.889,54.95c27.827,0.101,55.654-0.026,83.481-0.026
		c1.791,0,3.582,0,5.807,0c0.008,0,0.357,0.422,0.989,0.569v-13.569h-50.768l4.563-68h-9.796v-49h58.818
		c-9.545-4-28.506-12.114-23.376-22.327c4.641-9.238,11.88-16.942,13.947-19.563c1.539-1.952,5.03,0.541,7.414,1.64
		c12.485,5.756,21.405,17.822,25.959,37.986c0,0,6.019-24.474,26.194-37.918c5.144-3.427,9.869-4.818,13.839-4.818h0.001
		l0.005,10.03c-1.019,0-3.855,0.213-8.216,3.118c-11.508,7.669-17.636,20.165-20.3,27.037c9.586-2.409,20.378-8.543,27.307-18.921
		c3.533-5.293,1.096-8.035,2.989-10.724c0.129-0.184-0.583-0.611-1.583-0.611V63.758c6,7.898,15.199,15.023,8.657,24.624
		c-5.184,7.608-13.865,16.579-21.537,20.579h56.88v48.765l-14.105,4.125l4.222,64.11h-44.117v14.834
		c11.538-0.288,20.184-0.866,20.184-1.74c29.416,0,57.739,0.04,86.061-0.044c4.1-0.012,8.262-0.267,12.288-1.001
		C363.144,231.677,386.496,200.422,381.018,163.891z"/>
	<path class="st0" d="M149.442,77.886l-10.18,12.317c2.796,9.674,19.466,9.4,28.814,12.316
		C164.199,89.951,158.069,81.864,149.442,77.886z"/>
</g>
<rect x="158.537" y="183.741" class="st0" width="47.135" height="95.542"/>
</svg>