<!-- Generator: Adobe Illustrator 19.2.1, SVG Export Plug-In  -->
<svg version="1.1"
	 xmlns="http://www.w3.org/2000/svg" xmlns:xlink="http://www.w3.org/1999/xlink" xmlns:a="http://ns.adobe.com/AdobeSVGViewerExtensions/3.0/"
	 x="0px" y="0px" width="116.845px" height="56.887px" viewBox="0 0 116.845 56.887"
	 style="enable-background:new 0 0 116.845 56.887;" xml:space="preserve">
<style type="text/css">
	.st0{fill:#E73D3E;}
</style>
<defs>
</defs>
<path class="st0" d="M0,50.569c9.361-0.658,18.717-1.522,28.088-1.756c1.457-0.036,2.986,2.81,4.482,4.323
	c-1.496,1.172-3.028,3.396-4.482,3.346C18.716,56.157,9.361,55.337,0,54.679C0,53.309,0,51.939,0,50.569z"/>
<path class="st0" d="M99.889,48.532c3.727,0.005,7.549-0.489,11.147,0.193c2.119,0.401,3.885,2.668,5.81,4.095
	c-2.06,1.3-4.058,3.59-6.19,3.722c-7.426,0.46-14.919,0.47-22.341-0.027c-2.011-0.135-3.861-2.663-5.785-4.093
	c2.059-1.298,3.988-3.342,6.205-3.726C92.355,48.07,96.161,48.527,99.889,48.532z"/>
<path class="st0" d="M43.158,39.817c-9.134-1.449-22.701-14.994-24.05-23.2C26.712,16.988,40.332,29.759,43.158,39.817z"/>
<path class="st0" d="M96.518,16.839c-6.312,7.967-12.974,16.376-20.964,26.462C74.744,31.62,90.039,16.348,96.518,16.839z"/>
<path class="st0" d="M60.487,31.601c-5.7-2.112-6.729-9.759-4.252-31.601C62.247,2.927,63.76,14.172,60.487,31.601z"/>
</svg>