<!-- Generator: Adobe Illustrator 19.2.1, SVG Export Plug-In  -->
<svg version="1.1"
	 xmlns="http://www.w3.org/2000/svg" xmlns:xlink="http://www.w3.org/1999/xlink" xmlns:a="http://ns.adobe.com/AdobeSVGViewerExtensions/3.0/"
	 x="0px" y="0px" width="331.168px" height="320.42px" viewBox="0 0 331.168 320.42"
	 style="enable-background:new 0 0 331.168 320.42;" xml:space="preserve">
<style type="text/css">
	.st0{fill:#E73D3E;}
</style>
<defs>
</defs>
<path class="st0" d="M156.87,0.679c0.444,0.163,10.749-2.22,12.772,1.085c6.069,9.915,16.708,29.647,16.708,33.272
	c28.521-2.356,92.54,94.919,92.701,107.084c0.274,20.749,0.093,41.505,0.041,62.257c-0.004,1.612,0.458,2.736,1.607,3.867
	c6.481,6.38,12.918,12.806,19.267,19.315c0.802,0.822,1.405,2.222,1.422,3.364c0.12,8.101,0.068,18.786,0.068,19.838
	c11.433,3.882,11.433,3.882,21.673,7.264c2.78,8.943,4.434,17.211,8.04,29.449c-106.177,0-220.242-7.354-326.285-7.354
	c0-7.418,0-14.661,0-22.177c7.252,0,14.393,0,21.712,0c0-9.186-0.051-18.1,0.064-27.012c0.015-1.142,0.615-2.545,1.416-3.366
	c6.35-6.51,12.787-12.935,19.267-19.315c1.146-1.129,1.618-2.249,1.614-3.865c-0.055-18.52,0.033-37.041-0.067-55.561
	c-0.041-7.633,64.192-105.215,77.475-109.647c5.016-1.674,10.156-2.979,15.826-4.622C142.189,28.941,154.389,0.679,156.87,0.679z"/>
<path class="st0" d="M12.482,116.009c0.904-3.541,1.611-7.148,2.753-10.61c2.451-7.431,4.847-14.9,7.78-22.146
	c3.822-9.444,8.857-18.309,14.902-26.513c4.146-5.627,8.528-11.122,13.231-16.287c4.481-4.921,9.182-9.76,14.389-13.874
	c7.022-5.549,14.612-10.38,21.98-15.489c1.077-0.747,2.272-1.324,3.506-2.033c2.052,3.682,3.999,7.154,5.925,10.637
	c1.077,1.948,2.108,3.921,3.18,5.872c0.59,1.074,0.607,1.732-0.693,2.483c-7.857,4.541-15.332,9.616-22.173,15.636
	C65.951,53.639,56.316,64.912,48.75,77.991c-7.294,12.606-12.522,25.95-15.407,40.22c-0.145,0.717-0.403,1.412-0.706,2.454
	c-6.686-1.243-13.42-2.495-20.154-3.747C12.482,116.615,12.482,116.312,12.482,116.009z"/>
<path class="st0" d="M240.014,9.047c20.591,11.279,37.783,26.311,51.506,45.213c13.585,18.713,22.58,39.497,27.028,62.577
	c-6.656,1.282-13.351,2.572-19.564,3.769c-2.761-8.59-5.14-16.97-8.151-25.115c-4.055-10.968-9.855-21.069-17.012-30.318
	c-3.878-5.011-7.844-10.023-12.31-14.496c-7.59-7.601-15.967-14.318-25.207-19.883c-1.523-0.917-2.995-1.938-4.589-2.71
	c-1.265-0.613-1.451-1.256-0.792-2.445C233.936,20.203,236.901,14.74,240.014,9.047z"/>
<path class="st0" d="M170.531,320.029c-13.464,1.556-25.753-1.538-36.641-9.287c-7.072-5.033-12.798-14.405-16.356-22.771
	c31.06,0,61.908,2.843,92.769,2.843C204.451,305.566,187.919,318.02,170.531,320.029"/>
<path class="st0" d="M0,74.171c0.606-2.375,1.08-4.793,1.846-7.115c1.644-4.983,3.251-9.992,5.217-14.851
	c2.563-6.333,5.939-12.278,9.993-17.779c2.78-3.774,5.719-7.458,8.873-10.922c3.005-3.3,6.158-6.545,9.649-9.303
	c4.709-3.721,9.799-6.961,14.74-10.387c0.722-0.501,1.524-0.888,2.351-1.363c1.376,2.469,2.682,4.797,3.973,7.133
	c0.722,1.306,1.414,2.629,2.132,3.938c0.395,0.72,0.407,1.161-0.464,1.665c-5.268,3.045-10.282,6.449-14.869,10.485
	c-7.585,6.674-14.046,14.234-19.12,23.004c-4.891,8.454-8.397,17.402-10.332,26.971c-0.097,0.481-0.27,0.947-0.473,1.646
	C9.031,76.459,4.516,75.62,0,74.78C0,74.577,0,74.374,0,74.171z"/>
<path class="st0" d="M272.81,2.444c13.808,7.564,25.337,17.644,34.539,30.319c9.11,12.549,15.142,26.486,18.125,41.964
	c-4.463,0.86-8.953,1.725-13.119,2.527c-1.852-5.76-3.447-11.38-5.466-16.842c-2.719-7.355-6.609-14.129-11.408-20.331
	c-2.6-3.361-5.26-6.722-8.255-9.721c-5.09-5.097-10.707-9.601-16.903-13.333c-1.021-0.615-2.009-1.299-3.077-1.817
	c-0.848-0.411-0.973-0.842-0.531-1.639C268.734,9.925,270.722,6.262,272.81,2.444z"/>
</svg>