<!-- Generator: Adobe Illustrator 19.2.1, SVG Export Plug-In  -->
<svg version="1.1"
	 xmlns="http://www.w3.org/2000/svg" xmlns:xlink="http://www.w3.org/1999/xlink" xmlns:a="http://ns.adobe.com/AdobeSVGViewerExtensions/3.0/"
	 x="0px" y="0px" width="190.353px" height="132.785px" viewBox="0 0 190.353 132.785"
	 style="enable-background:new 0 0 190.353 132.785;" xml:space="preserve">
<style type="text/css">
	.st0{fill:#F29100;}
</style>
<defs>
</defs>
<path class="st0" d="M0,0c0,4.333,10.436,128.761,10.436,132.785c58.581,0,111.317,0,169.898,0
	c0-4.024,10.019-128.452,10.019-132.785C184.857,0,5.287,0,0,0z M69.478,108.822l-1.312-25.152l35.103-32.041l-0.437-7.764
	l-19.356,2.843l0.766,11.482l-18.481,1.75l3.718-31.385l13.013-4.593l32.369,0.875l5.468,5.14l2.843,31.604L88.943,89.576
	l25.371-0.548l0.766-7.437h9.295l0.219,24.715L69.478,108.822z"/>
</svg>