<!-- Generator: Adobe Illustrator 19.2.1, SVG Export Plug-In  -->
<svg version="1.1"
	 xmlns="http://www.w3.org/2000/svg" xmlns:xlink="http://www.w3.org/1999/xlink" xmlns:a="http://ns.adobe.com/AdobeSVGViewerExtensions/3.0/"
	 x="0px" y="0px" width="182.413px" height="123.827px" viewBox="0 0 182.413 123.827"
	 style="enable-background:new 0 0 182.413 123.827;" xml:space="preserve">
<style type="text/css">
	.st0{fill:#F29100;}
</style>
<defs>
</defs>
<g>
	<path class="st0" d="M65.823,3.275l-1.248,21.258l-2.955-0.136l0.732,2.142l-2.549,0.217l-0.569-2.468l-6.752-0.353L51.669,3.275
		H65.823z M57.634,18.243l1.735-0.488l1.41,3.851L60.563,9.891l-5.098,0.325l1.355,11.334l1.817,0.027L57.634,18.243z"/>
	<path class="st0" d="M69.614,4.658l3.281-0.353l0.786,13.91l4.229-0.163V4.088l3.146-0.217l0.569,1.302l0.38,18.438l-1.41,0.922
		h-9.87c-0.054-0.027-1.084-1.573-1.084-1.6L69.614,4.658z"/>
	<path class="st0" d="M97.62,3.601l0.217,4.013l-6.996-0.217l0.055,2.766l5.26,1.085l0.218,3.091l-5.857,1.41l0.163,4.176
		l8.188-0.38v4.989L86.72,24.235l-0.732-1.329L85.798,3.438L97.62,3.601z"/>
	<path class="st0" d="M115.35,2.841l0.867,0.542l0.705,9.327l-1.735,1.898l-3.037,0.217l4.772,9.002l-3.362,0.488l-4.935-9.219
		h-0.163l0.055,9.057l-5.803-0.217l0.65-20.878L115.35,2.841z M107.865,11.626l3.851,0.217l0.597-2.657l-0.813-3.417h-3.796
		L107.865,11.626z"/>
	<path class="st0" d="M35.719,35.09l-0.488,4.664l-5.966-0.325v3.037l4.936,0.542l-0.055,3.146l-5.043,0.379l-0.38,9.49
		l-5.531-0.651l0.434-20.39L35.719,35.09z"/>
	<path class="st0" d="M47.781,34.331l3.199,21.421l-4.176,0.271l-0.597-5.965l-2.332,0.271l-0.325,5.478l-6.562-0.054l3.362-20.878
		L47.781,34.331z M43.172,46.803h2.386l-1.682-7.755L43.172,46.803z"/>
	<path class="st0" d="M63.315,34.385l1.789,1.03l0.977,5.64l-4.989,0.542l-1.247-2.82l-1.356,0.271l0.76,13.069l2.657-0.488
		l-0.38-6.074l4.935-0.38l1.03,5.423l-1.789,5.098l-9.762,0.542l-1.789-1.247l-0.488-16.974l2.169-2.982L63.315,34.385z"/>
	<path class="st0" d="M75.811,35.523l-1.084,20.12l-3.904,0.379l-0.977-20.336L75.811,35.523z"/>
	<path class="st0" d="M84.702,35.198l0.325,16.377l3.525-0.108l0.325,3.85l-8.677,0.163l-0.597-20.607L84.702,35.198z"/>
	<path class="st0" d="M97.796,35.523l-1.084,20.12l-3.904,0.379l-0.977-20.336L97.796,35.523z"/>
	<path class="st0" d="M101.59,38.994l0.38-4.284l11.035,0.217l-0.271,4.555l-3.336-0.136l0.218,16.432l-4.772-0.081L104.6,39.238
		L101.59,38.994z"/>
	<path class="st0" d="M125.041,34.331l3.199,21.421l-4.176,0.271l-0.597-5.965l-2.332,0.271l-0.325,5.478l-6.562-0.054l3.362-20.878
		L125.041,34.331z M120.432,46.803h2.386l-1.682-7.755L120.432,46.803z"/>
	<path class="st0" d="M143.828,34.331l0.867,0.542L145.4,44.2l-1.735,1.898l-3.037,0.217l4.772,9.002l-3.362,0.488l-4.935-9.219
		h-0.163l0.055,9.057l-5.803-0.217l0.65-20.878L143.828,34.331z M136.344,43.116l3.851,0.217l0.597-2.657l-0.813-3.417h-3.796
		L136.344,43.116z"/>
	<path class="st0" d="M19.088,65.82l3.199,21.421l-4.176,0.271l-0.597-5.965l-2.332,0.271l-0.325,5.478l-6.562-0.054l3.362-20.878
		L19.088,65.82z M14.479,78.293h2.386l-1.682-7.755L14.479,78.293z"/>
	<path class="st0" d="M43.7,66.905l1.465,14.913l1.464-14.913l5.206,0.163L48.689,86.59l-6.128,0.217l-4.826-20.011L43.7,66.905z"/>
	<path class="st0" d="M61.592,67.013l-1.084,20.12l-3.904,0.379l-0.977-20.336L61.592,67.013z"/>
	<path class="st0" d="M77.425,66.58l1.464,2.928l-0.027,15.32l-2.928,1.79l-10.331-0.081l-0.217-20.065L77.425,66.58z
		 M70.646,83.716l1.79,0.163l0.65-0.542l0.218-12.093l-0.813-0.759l-1.682-0.379L70.646,83.716z"/>
	<path class="st0" d="M92.904,65.82l3.199,21.421l-4.176,0.271l-0.597-5.965l-2.332,0.271l-0.325,5.478l-6.562-0.054l3.362-20.878
		L92.904,65.82z M88.295,78.293h2.386l-1.682-7.755L88.295,78.293z"/>
	<path class="st0" d="M123.591,66.58l1.464,2.928l-0.027,15.32l-2.928,1.79l-10.331-0.081l-0.217-20.065L123.591,66.58z
		 M116.812,83.716l1.79,0.163l0.65-0.542l0.218-12.093l-0.813-0.759l-1.682-0.379L116.812,83.716z"/>
	<path class="st0" d="M140.696,66.905l1.572,1.871l0.406,14.235l-1.274,3.308l-11.523,0.108l-1.03-3.688l0.081-12.96l2.115-3.308
		L140.696,66.905z M134.242,80.869l2.468-0.108l0.488-3.498l-0.597-5.938l-3.01,0.705L134.242,80.869z"/>
	<path class="st0" d="M146.9,79.188l3.904-0.461l0.516,3.579l3.959,0.082l0.353-4.61l-0.922-1.274l-7.538,0.108l-0.705-1.572
		l0.189-8.297l0.569-0.624l13.016,0.244l-0.217,5.559l-2.657-0.055l-0.082-2.223l-5.965-0.082l0.136,3.308l8.568,0.461l0.271,12.717
		l-1.409,1.546l-12.419-0.488L146.9,79.188z"/>
	<path class="st0" d="M10.467,97.364l1.789,1.03l0.977,5.64l-4.989,0.542l-1.247-2.82l-1.356,0.271l0.76,13.07l2.657-0.488
		l-0.38-6.074l4.935-0.379l1.03,5.423l-1.789,5.098l-9.762,0.542l-1.789-1.247l-0.488-16.974l2.169-2.982L10.467,97.364z"/>
	<path class="st0" d="M30.283,98.394l1.572,1.871l0.406,14.235l-1.274,3.308l-11.523,0.108l-1.03-3.688l0.081-12.96l2.115-3.308
		L30.283,98.394z M23.829,112.358l2.468-0.108l0.488-3.498l-0.597-5.938l-3.01,0.705L23.829,112.358z"/>
	<path class="st0" d="M42.888,97.852l4.501,13.829l-1.193-13.937l3.254-0.434l0.868,20.119l-4.122,0.163l-4.446-14.154
		l-0.217,14.696l-5.478-0.434l0.597-19.306L42.888,97.852z"/>
	<path class="st0" d="M58.095,98.394l1.465,14.913l1.464-14.913l5.206,0.163l-3.146,19.523l-6.128,0.217L52.13,98.286L58.095,98.394
		z"/>
	<path class="st0" d="M75.986,98.502l-1.084,20.12l-3.904,0.379l-0.977-20.336L75.986,98.502z"/>
	<path class="st0" d="M91.819,98.069l1.464,2.928l-0.027,15.32l-2.928,1.79l-10.331-0.081L79.78,97.96L91.819,98.069z
		 M85.04,115.206l1.79,0.163l0.65-0.542l0.218-12.093l-0.813-0.759l-1.682-0.379L85.04,115.206z"/>
	<path class="st0" d="M107.298,97.31l3.199,21.421l-4.176,0.271l-0.597-5.965l-2.332,0.271l-0.325,5.478l-6.562-0.054l3.362-20.878
		L107.298,97.31z M102.688,109.782h2.386l-1.682-7.755L102.688,109.782z"/>
	<path class="st0" d="M125.488,98.069l1.464,2.928l-0.027,15.32l-2.928,1.79l-10.331-0.081l-0.217-20.065L125.488,98.069z
		 M118.71,115.206l1.789,0.163l0.65-0.542l0.218-12.093l-0.813-0.759l-1.682-0.379L118.71,115.206z"/>
	<path class="st0" d="M142.594,98.394l1.572,1.871l0.406,14.235l-1.274,3.308l-11.523,0.108l-1.03-3.688l0.081-12.96l2.115-3.308
		L142.594,98.394z M136.14,112.358l2.468-0.108l0.488-3.498l-0.597-5.938l-3.01,0.705L136.14,112.358z"/>
	<path class="st0" d="M148.799,110.677l3.904-0.461l0.516,3.579l3.959,0.082l0.353-4.61l-0.922-1.274l-7.538,0.108l-0.705-1.572
		l0.189-8.297l0.569-0.624l13.016,0.244l-0.217,5.559l-2.657-0.055l-0.082-2.223l-5.965-0.082l0.136,3.308l8.568,0.461l0.271,12.717
		l-1.409,1.546l-12.419-0.488L148.799,110.677z"/>
	<path class="st0" d="M174.499,104.82l-0.108-1.925l-4.013,0.516l0.189,2.847l-4.582,0.434l0.922-7.782l3.227-1.139l7.24,0.407
		l1.355,1.274l0.705,7.836l-3.742,2.875l-0.786,2.44l-4.501,0.163l-0.163-4.338L174.499,104.82z M174.255,113.958l0.326,0.434
		l0.325,3.145l-0.705,1.139l-2.766,0.108l-1.193-0.488v-3.199l1.03-1.248L174.255,113.958z"/>
</g>
</svg>