<!-- Generator: Adobe Illustrator 19.2.1, SVG Export Plug-In  -->
<svg version="1.1"
	 xmlns="http://www.w3.org/2000/svg" xmlns:xlink="http://www.w3.org/1999/xlink" xmlns:a="http://ns.adobe.com/AdobeSVGViewerExtensions/3.0/"
	 x="0px" y="0px" width="381.127px" height="416.582px" viewBox="0 0 381.127 416.582"
	 style="enable-background:new 0 0 381.127 416.582;" xml:space="preserve">
<style type="text/css">
	.st0{fill:#E73D3E;}
	.st1{fill:#FFFFFF;}
	.st2{fill:#009EE2;}
	.st3{fill:#F29100;}
	.st4{font-family:'DKAstromonkey';}
	.st5{font-size:172.9064px;}
</style>
<defs>
</defs>
<g>
	<path class="st0" d="M287.022,219.249c12.708-6.914,26.919-21.264,35.507-33.867c10.836-15.902-3.67-27.484-14.509-40.567l0,16.782
		c2.249,0,3.005,0.707,2.79,1.011c-3.137,4.455,0.985,8.997-4.867,17.764c-11.476,17.192-29.312,27.352-45.19,31.343
		c4.413-11.383,14.584-32.082,33.646-44.786c7.224-4.812,11.931-5.333,13.619-5.333l0.002-16.782h-0.002
		c-6.576,0.001-14.404,2.472-22.924,8.148c-33.419,22.269-43.39,62.893-43.39,62.893c-7.545-33.401-22.32-53.345-43-62.88
		c-3.95-1.821-9.731-5.929-12.281-2.696c-3.423,4.341-15.415,16.891-23.102,32.194c-8.498,16.918,22.909,29.795,38.721,36.774
		h-97.461v81.219h16.258l-7.559,113.28h128.425h123.165l-7.05-106.322l23.307-6.958v-81.219H287.022z M191.678,168.218
		c14.291,6.588,24.444,19.984,30.866,40.803c-15.485-4.831-43.097-4.377-47.729-20.402"/>
	<g>
		<g>
			<path class="st1" d="M172.425,251.453l3.632,104.612l27.666-3.285l0.173-102.537h29.222l2.421,133.834l-91.644,0.52V250.069
				L172.425,251.453z"/>
			<path class="st1" d="M274.44,333.932l3.631,21.441l21.614,1.383v-30.778l-51.355-5.187l-1.21-70.03l84.382-2.767l-4.842,33.199
				h-17.983l1.211-8.646l-30.778,3.285v16.6l50.145,2.594l4.841,88.013l-82.824,3.112l-4.323-8.127l-1.037-42.709L274.44,333.932z"
				/>
		</g>
	</g>
	<g>
		<path class="st2" d="M101.393,226.877l2.797,45.993c1.971,0.901,4.381,0.175,9.615,0.175l5.769-0.262
			c2.477,0,4.301-0.693,5.427,1.558l0.674,29.718c0,10.357-1.801,15.535-5.402,15.535l-15.535,0.675h-4.052l-0.676,4.728
			l1.162,64.593c0,2.42-1.127,4.221-3.376,5.403l-27.528,7.092c-4.954,0-7.43-3.152-7.43-9.455v-1.351h0.676l-1.838-50.41v-17.561
			H46.817l-45.254-1.351h4.515C2.026,321.169,0,319.592,0,317.228l3.376-50.656c0-38.837-0.674-71.256-2.026-97.26v-8.104
			c0-3.152,1.352-4.728,4.052-4.728l25.88,2.026c1.913,0,3.489,0.901,4.728,2.702l-0.676,10.13
			c1.52,44.409,3.321,79.757,5.404,106.04h19.587v-4.052l1.35-27.016v-17.562l0.676-51.331l0.676-2.702l-0.676-4.727
			c0-4.503,2.251-6.754,6.754-6.754l4.728-0.676h26.341"/>
	</g>
	<g>
		<path class="st3" d="M99.672,18.496l8.3,47.032l-28.013-1.383l0.692-17.983L52.12,44.087l5.015,77.811l4.15,2.421h19.366
			l2.767-15.216H69.239l2.42-21.787l37.35,3.804l-3.804,65.361H39.498l-16.6-10.375L19.441,35.441l16.253-14.871L99.672,18.496z"/>
		<path class="st3" d="M119.378,22.646h27.32v130.722h-26.283L119.378,22.646z"/>
		<path class="st3" d="M163.294,17.804l66.744,0.346l-2.074,20.75l-35.274,2.767v30.433l29.396-1.729v25.245l-32.508,1.729
			l-3.458,59.136l-25.592-4.496l-3.458-131.414L163.294,17.804z"/>
		<path class="st3" d="M252.513,153.713l4.323-113.776l-16.427-1.729l2.075-18.329h85.073l-2.421,22.825l-31.816-1.729
			L282.945,156.48L252.513,153.713z"/>
	</g>
</g>
</svg>