<!-- Generator: Adobe Illustrator 19.2.1, SVG Export Plug-In  -->
<svg version="1.1"
	 xmlns="http://www.w3.org/2000/svg" xmlns:xlink="http://www.w3.org/1999/xlink" xmlns:a="http://ns.adobe.com/AdobeSVGViewerExtensions/3.0/"
	 x="0px" y="0px" width="167px" height="162.375px" viewBox="0 0 167 162.375" style="enable-background:new 0 0 167 162.375;"
	 xml:space="preserve">
<style type="text/css">
	.st0{fill:#E73D3E;}
</style>
<defs>
</defs>
<path class="st0" d="M167,45.375h-57.22c7.672-5,16.023-13.057,21.208-20.665C137.529,15.11,129,7.898,122,0v10.131
	c2,0,2.042,0.427,1.913,0.61c-1.894,2.689,0.709,5.432-2.825,10.724c-6.928,10.379-17.638,16.512-27.224,18.922
	c2.664-6.872,8.833-19.368,20.341-27.037c4.361-2.905,7.217-3.031,8.236-3.031l0.015-9.944h-0.001c-3.97,0-8.696,1.304-13.839,4.731
	C88.441,18.551,82.422,42.982,82.422,42.982C77.867,22.818,68.947,10.731,56.462,4.974c-2.385-1.1-5.875-3.603-7.414-1.651
	c-2.066,2.621-9.306,10.406-13.947,19.644c-5.13,10.213,13.831,17.409,23.376,22.409H0v49h9.455l-4.563,68h77.53h74.354
	l-4.051-64.197L167,93.967V45.375z M42.04,26.444l10.18-12.316c8.627,3.977,14.757,12.064,18.634,24.633
	C61.506,35.844,44.836,36.118,42.04,26.444z M125,81.054c-3,4.529-6.005,9.058-9.036,13.685c-2.888-1.342-4.964-2.691-8.964-4.131
	c0,16.479,0,32.767,0,48.767c-16,0-32,0-48,0c0-16,0-32.466,0-48.761c-3,1.403-5.945,2.757-8.871,4.125
	c-0.301-0.426-0.562-0.786-0.809-1.163C46.54,89.327,44,85.075,41,80.823c0-0.077,0-0.154,0-0.231c3-2.729,6.129-5.443,9.188-8.191
	c2.669-2.397,5.276-4.844,7.946-7.24c0.441-0.396,0.964-0.805,1.52-0.94c3.973-0.96,7.958-1.851,11.933-2.762
	c5.102,7.834,17.644,8.267,23.302,0.005c2.955,0.677,5.919,1.33,8.869,2.045c1.305,0.316,2.859,0.417,3.817,1.204
	c3.678,3.019,7.006,6.279,10.565,9.443c2.332,2.074,4.861,4.137,6.861,6.204C125,80.592,125,80.823,125,81.054z"/>
</svg>