<!-- Generator: Adobe Illustrator 19.2.1, SVG Export Plug-In  -->
<svg version="1.1"
	 xmlns="http://www.w3.org/2000/svg" xmlns:xlink="http://www.w3.org/1999/xlink" xmlns:a="http://ns.adobe.com/AdobeSVGViewerExtensions/3.0/"
	 x="0px" y="0px" width="143.757px" height="185.339px" viewBox="0 0 143.757 185.339"
	 style="enable-background:new 0 0 143.757 185.339;" xml:space="preserve">
<style type="text/css">
	.st0{fill:#E73D3E;}
	.st1{fill:#FFFFFF;}
	.st2{fill:#009EE2;}
	.st3{fill:#F29100;}
</style>
<defs>
</defs>
<g>
	<g>
		<path class="st0" d="M78.089,32.569c5.205-3.389,10.803-10.011,14.053-15.696C96.243,9.7,89.642,5.234,84.561,0l0.567,7.183
			c0.963-0.076,1.31,0.201,1.228,0.338c-1.192,2.013,0.726,3.818-1.483,7.768c-4.331,7.746-11.622,12.698-18.283,14.943
			c1.504-5.021,5.158-14.225,12.888-20.306c2.929-2.304,4.927-2.686,5.649-2.743L84.561,0L84.56,0
			c-2.815,0.223-6.082,1.545-9.537,4.262C61.472,14.924,58.577,32.649,58.577,32.649C54.219,18.608,47.221,10.57,38.047,7.188
			c-1.752-0.646-4.366-2.209-5.348-0.739c-1.319,1.974-6.027,7.751-8.8,14.561c-3.066,7.528,10.813,11.979,17.816,14.431L0,38.735
			l2.745,34.764l6.959-0.549l0.593,48.742l54.969-4.34l52.717-4.163l-6.611-45.27l9.741-3.766l-2.745-34.764L78.089,32.569z
			 M35.555,13.949c6.34,2.337,11.138,7.728,14.591,16.421c-6.791-1.544-18.595-0.417-21.119-7.119"/>
		<path id="XMLID_46_" class="st1" d="M87.231,56.908L65.319,60.03c-5.084,0.724-8.727,5.261-8.456,10.299
			c-2.122-2.073-5.14-3.187-8.287-2.739l-14.085,2.006c-5.373,0.765-9.143,5.788-8.378,11.161l4.747,10.434
			c2.65,5.413,5.788,9.143,11.161,8.378l10.889-1.551c3.389-0.483,6.137-2.661,7.515-5.551c1.81,3.788,5.94,6.155,10.302,5.534
			l18.431-2.626c5.373-0.765,9.143-5.788,8.378-11.161l0.855-18.927C97.627,59.913,92.604,56.143,87.231,56.908z"/>
		<g>
			
				<ellipse id="XMLID_45_" transform="matrix(0.9872 -0.1592 0.1592 0.9872 -14.0032 9.4474)" class="st0" cx="51.971" cy="92.134" rx="3.503" ry="3.503"/>
			
				<ellipse id="XMLID_44_" transform="matrix(0.9872 -0.1592 0.1592 0.9872 -12.9759 14.6946)" class="st0" cx="85.238" cy="88.345" rx="3.503" ry="3.503"/>
		</g>
		<polygon id="XMLID_42_" class="st2" points="1.365,53.387 1.951,57.921 118.685,43.951 119.12,38.229 		"/>
		<g>
			<path id="XMLID_11_" class="st2" d="M26.48,34.057c-0.147,0.082-0.403,0.496-0.703,1.085c-0.098-0.031-0.176-0.052-0.226-0.058
				c-0.378,0.1-2.131,4.093-2.714,6.034c-1.22,4.062-1.225,7.399-1.225,7.399c-0.848,0.691-2.986,3.451-3.442,4.445
				c0.032,0.025,0.079,0.062,0.138,0.107C18.221,53,18.17,52.961,18.17,52.961s-3.229,0.839-6.857,3.037
				c-1.733,1.05-5.161,3.746-5.163,4.137c0.018,0.047,0.058,0.117,0.113,0.204c-0.495,0.438-0.832,0.789-0.874,0.952
				c0.229,0.588,3.604,4.707,5.577,6.28c1.973,1.574,7.463,3.728,7.899,3.518c0.108-0.052,0.338-0.448,0.626-1.043
				c0.152,0.028,0.26,0.034,0.307,0.011c0.441-0.212,2.895-6.112,3.169-8.027c0.262-1.829,0.122-3.801-0.264-5.561
				c0.032,0.025,0.062,0.048,0.087,0.067c0.948-0.619,3.08-3.372,3.442-4.445c-0.025-0.019-0.055-0.042-0.086-0.067
				c1.8-0.066,3.745-0.424,5.45-1.135c1.785-0.745,6.884-4.596,6.979-5.076c0.01-0.051-0.023-0.154-0.088-0.294
				c0.504-0.428,0.83-0.75,0.854-0.867c0.094-0.474-3.365-5.251-5.383-6.767C31.939,36.369,27.106,34.131,26.48,34.057z
				 M22.482,56.301c0.027,0.021,0.052,0.041,0.077,0.06C22.535,56.341,22.509,56.322,22.482,56.301z M18.421,53.156
				c0.046,0.035,0.095,0.073,0.149,0.115C18.516,53.229,18.465,53.19,18.421,53.156z M18.663,53.343
				c0.05,0.039,0.102,0.079,0.157,0.122C18.765,53.422,18.712,53.381,18.663,53.343z M18.94,53.557
				c0.189,0.147,0.402,0.311,0.628,0.487C19.34,53.867,19.128,53.703,18.94,53.557z M19.668,54.121
				c0.157,0.122,0.32,0.248,0.485,0.375C19.987,54.369,19.825,54.243,19.668,54.121z M20.49,54.758
				c0.052,0.04,0.104,0.08,0.155,0.12C20.594,54.838,20.542,54.798,20.49,54.758z M21.304,55.388
				c0.035,0.027,0.069,0.053,0.103,0.08C21.373,55.441,21.338,55.415,21.304,55.388z M23.914,50.299
				c0.161,0.125,0.322,0.249,0.481,0.372C24.236,50.549,24.075,50.424,23.914,50.299z M21.744,48.618
				c0.054,0.042,0.123,0.095,0.206,0.159C21.87,48.716,21.801,48.662,21.744,48.618z M22.029,48.839
				c0.068,0.053,0.143,0.111,0.224,0.174C22.173,48.951,22.098,48.892,22.029,48.839z M22.294,49.044
				c0.064,0.049,0.13,0.1,0.2,0.155C22.424,49.145,22.357,49.093,22.294,49.044z M22.892,49.507c0.055,0.042,0.11,0.085,0.167,0.129
				C23.002,49.593,22.947,49.55,22.892,49.507z M23.272,49.802c0,0,0.002,0.002,0.004,0.003
				C23.275,49.804,23.273,49.803,23.272,49.802z"/>
			<path class="st3" d="M25.034,54.744L25.034,54.744c-1.001,1.324-2.903,1.589-4.227,0.588l-0.577-0.436
				c-1.324-1.001-1.589-2.903-0.588-4.227l0,0c1.001-1.324,2.903-1.589,4.227-0.588l0.577,0.436
				C25.77,51.517,26.034,53.42,25.034,54.744z"/>
		</g>
	</g>
	<g id="XMLID_1_">
		<path id="XMLID_9_" class="st0" d="M55.649,117.447l-37.74,52.616c-0.338,0.014-0.677,0.033-1.02,0.06
			c-7.652,0.623-13.58,4.515-13.24,8.693c0.339,4.168,6.786,7.045,14.413,6.442l0,0.001l11.318-0.921l35.564-68.08l2.051-0.262
			l54.992,60.806l8.517-0.693c7.652-0.623,13.58-4.515,13.24-8.693s-6.819-7.061-14.471-6.438c-0.367,0.03-0.728,0.069-1.087,0.114
			L76.17,114.823L55.649,117.447z"/>
		<g id="XMLID_2_">
			<g id="XMLID_6_">
				<path id="XMLID_8_" class="st0" d="M130.722,170.188c-0.118,0.01-0.239-0.026-0.336-0.108c-0.194-0.165-0.218-0.456-0.053-0.65
					l4.083-4.806c0.165-0.194,0.456-0.218,0.65-0.053c0.194,0.165,0.218,0.456,0.053,0.65l-4.083,4.806
					C130.954,170.124,130.84,170.179,130.722,170.188z"/>
				<path id="XMLID_7_" class="st0" d="M135.167,169.827c-0.118,0.01-0.239-0.026-0.336-0.108l-4.806-4.083
					c-0.194-0.165-0.218-0.456-0.053-0.65c0.165-0.194,0.456-0.218,0.65-0.053l4.806,4.083c0.194,0.165,0.218,0.456,0.053,0.65
					C135.398,169.763,135.284,169.817,135.167,169.827z"/>
			</g>
			<g id="XMLID_3_">
				<path id="XMLID_5_" class="st0" d="M135.167,169.827c-0.118,0.01-0.239-0.026-0.336-0.108c-0.194-0.165-0.218-0.456-0.053-0.65
					l4.083-4.806c0.165-0.194,0.456-0.218,0.65-0.053c0.194,0.165,0.218,0.456,0.053,0.65l-4.083,4.806
					C135.398,169.763,135.284,169.817,135.167,169.827z"/>
				<path id="XMLID_4_" class="st0" d="M139.611,169.465c-0.118,0.01-0.239-0.026-0.336-0.108l-4.806-4.083
					c-0.194-0.165-0.218-0.456-0.053-0.65c0.165-0.194,0.456-0.218,0.65-0.053l4.806,4.083c0.194,0.165,0.218,0.456,0.053,0.65
					C139.843,169.401,139.729,169.455,139.611,169.465z"/>
			</g>
		</g>
	</g>
</g>
</svg>