<!-- Generator: Adobe Illustrator 19.2.1, SVG Export Plug-In  -->
<svg version="1.1"
	 xmlns="http://www.w3.org/2000/svg" xmlns:xlink="http://www.w3.org/1999/xlink" xmlns:a="http://ns.adobe.com/AdobeSVGViewerExtensions/3.0/"
	 x="0px" y="0px" width="167px" height="162.919px" viewBox="0 0 167 162.919" style="enable-background:new 0 0 167 162.919;"
	 xml:space="preserve">
<style type="text/css">
	.st0{fill:#FFFFFF;}
</style>
<defs>
</defs>
<path class="st0" d="M167,44.919h-55.245c7.671-4,15.536-12.829,20.72-20.437C139.016,14.881,130,7.898,123,0v10.131
	c2,0,2.529,0.427,2.4,0.61c-1.894,2.689,0.953,5.432-2.581,10.724c-6.928,10.379-17.517,16.512-27.102,18.922
	c2.664-6.872,8.894-19.368,20.402-27.037c4.361-2.905,7.247-2.76,8.267-2.76l0.046-9.672h-0.001c-3.97,0-8.696,1.033-13.839,4.46
	C90.416,18.822,84.396,43.118,84.396,43.118C79.842,22.954,70.922,10.798,58.437,5.042c-2.384-1.1-5.875-3.637-7.414-1.685
	c-2.067,2.621-9.306,10.16-13.947,19.398c-5.13,10.213,13.83,18.163,23.376,22.163H0v50h11.43l-4.563,68h77.53h74.354l-5.039-64.468
	L167,93.967V44.919z M89.874,64.386l-0.914,8.792L76,72.958v12.638l9,0.769v6.044l-8.739,1.099l0.069,7.692l14.223-0.22
	l-0.361,6.923l-22.478-0.33l-0.409-41.87L89.874,64.386z M44.015,26.444l10.18-12.316c8.628,3.977,14.757,12.064,18.634,24.633
	C63.481,35.844,46.811,36.118,44.015,26.444z M36.216,87.727l-0.163-22.21l26.97-0.557l-1.381,10.959h-5.715l-0.381-3.156L45,73.397
	v5.275l16.702,0.824l1.992,27.968l-26.16,0.989l-1.289-2.583l-0.279-13.572l9.109-0.439l0.582,6.813L52,99.113v-9.781L36.216,87.727
	z M33.905,138.919l0.378-24.056l5.426,0.537l-0.315,19.57l3.217,0.292l0.315-3.343h2.396l0.631,7H33.905z M52,138.919h-3.965
	l-0.189-24H52V138.919z M72.951,138.7l-1.892-17.526l-2.902,15.745h-3.722l-2.901-16.376l0.189,18.752l-7.002-0.564l1.64-23.937
	l8.074-0.204l1.641,15.763l3.027-14.827l8.2-0.973l2.649,23.314L72.951,138.7z M86,138.919h-3.964l-0.189-24H86V138.919z
	 M104.176,118.756l-5.803-0.523l-1.893,21.016l-5.551-0.523l0.788-20.744l-2.996-0.04l0.378-3.022h15.519L104.176,118.756z
	 M119.698,138.925l-12.928-0.189l-0.244-24.034l12.948-0.757l-0.784,5.046l-7.69-0.126v7.254l5,0.441v3.47l-4.681,0.631l0.151,4.416
	l8.322-0.126L119.698,138.925z M115.713,104.919h-6.483l-5.056-28.783l0.33,32.327l-12.198-0.938l2.857-41.679l14.066-0.344
	l2.857,27.466l5.274-25.828l14.286-1.65l4.615,40.66l-12.197,1.58l-3.297-30.492L115.713,104.919z M122.805,139.24l-0.8-1.482
	l-0.214-7.79l5.155-0.252l-0.063,3.911l3.118,0.252v-5.614l-8.543-0.902l0.29-12.73l15.548-0.181l-0.726,6.467h-3.28l-0.227-1.989
	L127,119.118v3.028l9.594,0.473l1.101,16.054L122.805,139.24z"/>
</svg>