<!-- Generator: Adobe Illustrator 19.2.1, SVG Export Plug-In  -->
<svg version="1.1"
	 xmlns="http://www.w3.org/2000/svg" xmlns:xlink="http://www.w3.org/1999/xlink" xmlns:a="http://ns.adobe.com/AdobeSVGViewerExtensions/3.0/"
	 x="0px" y="0px" width="400.155px" height="381.643px" viewBox="0 0 400.155 381.643"
	 style="enable-background:new 0 0 400.155 381.643;" xml:space="preserve">
<style type="text/css">
	.st0{fill:#FFFFFF;}
</style>
<defs>
</defs>
<g>
	<path class="st0" d="M229.32,381.643c-64.977,0-123.81,0-188.822,0C29.301,255.208,19.647,151.909,0,0
		c167.706,7.081,259.578,11.243,400.155,15.743c0,121.9-6.508,243.9-6.508,365.9c-37.863,0-69.341,0-107.327,0
		c0.111-1.988,0.317-3.975,0.318-5.963c0.019-43.164,0.014-86.329,0.014-129.493c0-1.932,0-3.865,0-6.291
		c15.968,0,31.231,0,46.848,0c2.548-19.247,5.037-38.044,7.632-57.642c-18.682,0-36.392,0-54.48,0
		c0-13.827-0.01-26.968,0.003-40.109c0.012-11.876,8.363-20.156,20.326-20.169c9-0.009,17.999-0.002,26.999-0.002
		c2.425,0,4.851,0,7.219,0c0-17.65,0-34.525,0-50.68c-18.718,0-36.988-0.399-55.231,0.125c-14.975,0.43-27.494,7.477-37.994,17.685
		c-12.619,12.268-18.522,27.756-18.919,45.21c-0.322,14.159-0.057,28.33-0.077,42.496c-0.002,1.754-0.156,3.507-0.264,5.751
		c-15.833,0-31.083,0-46.27,0c0,19.403,0,38.277,0,57.668c15.7,0,30.949,0,46.545,0c0,2.501,0,4.48,0,6.458
		c0,42.998-0.004,85.995,0.014,128.993C229.003,377.668,229.209,379.655,229.32,381.643z"/>
</g>
</svg>