<!-- Generator: Adobe Illustrator 19.2.1, SVG Export Plug-In  -->
<svg version="1.1"
	 xmlns="http://www.w3.org/2000/svg" xmlns:xlink="http://www.w3.org/1999/xlink" xmlns:a="http://ns.adobe.com/AdobeSVGViewerExtensions/3.0/"
	 x="0px" y="0px" width="339.924px" height="376px" viewBox="0 0 339.924 376" style="enable-background:new 0 0 339.924 376;"
	 xml:space="preserve">
<style type="text/css">
	.st0{fill:#E73D3E;stroke:#FFFFFF;stroke-width:2.8346;stroke-miterlimit:10;}
	.st1{fill:#FFFFFF;}
	.st2{fill:#E73D3E;}
	.st3{fill:none;stroke:#E73D3E;stroke-width:20;stroke-miterlimit:10;}
</style>
<defs>
</defs>
<g>
	<g>
		<polygon class="st0" points="191.138,104.663 129.814,104.663 129.814,53.871 198.539,53.871 		"/>
		<polygon class="st0" points="215.456,177.406 109.684,177.406 117.127,106.207 208.892,106.207 		"/>
	</g>
	<path class="st1" d="M157.928,81.566h-7.935c-1.949,0-3.529-1.58-3.529-3.529v-7.935c0-1.949,1.58-3.529,3.529-3.529h7.935
		c1.949,0,3.529,1.58,3.529,3.529v7.935C161.457,79.986,159.877,81.566,157.928,81.566z"/>
	<path class="st1" d="M173.846,81.566h-4.239c-1.921,0-3.477-1.557-3.477-3.477V73.85c0-1.921,1.557-3.477,3.477-3.477h4.239
		c1.921,0,3.477,1.557,3.477,3.477v4.239C177.323,80.009,175.766,81.566,173.846,81.566z"/>
</g>
<path class="st2" d="M264.749,220.829c0,5.277,0,10.209,0,15.396c-63.47,0-126.712,0-190.363,0c0-4.932,0-9.987,0-15.396
	C137.618,220.829,200.978,220.829,264.749,220.829z"/>
<path class="st2" d="M250.752,250.831c0,4.938,0,9.537,0,14.392c-58.801,0-117.377,0-176.363,0c0-4.593,0-9.313,0-14.392
	C132.947,250.831,191.641,250.831,250.752,250.831z"/>
<path class="st2" d="M74.204,294.133c0-5.267,0-10.199,0-15.388c54.133,0,108.042,0,162.363,0c0,4.922,0,9.977,0,15.388
	C182.679,294.133,128.652,294.133,74.204,294.133z"/>
<path class="st2" d="M74.2,322.129c0-5.256,0-10.188,0-15.381c49.249,0,98.276,0,147.541,0c0,5.16,0,10.092,0,15.381
	C172.686,322.129,123.659,322.129,74.2,322.129z"/>
<polygon class="st3" points="13.747,10 10.103,366 292.344,366 328.847,10 "/>
</svg>