<!-- Generator: Adobe Illustrator 19.2.1, SVG Export Plug-In  -->
<svg version="1.1"
	 xmlns="http://www.w3.org/2000/svg" xmlns:xlink="http://www.w3.org/1999/xlink" xmlns:a="http://ns.adobe.com/AdobeSVGViewerExtensions/3.0/"
	 x="0px" y="0px" width="566.799px" height="607.391px" viewBox="0 0 566.799 607.391"
	 style="enable-background:new 0 0 566.799 607.391;" xml:space="preserve">
<style type="text/css">
	.st0{fill:#E73D3E;}
</style>
<defs>
</defs>
<g>
	<path class="st0" d="M166.835,0.268c11.155,17.195,36.911,82.831,38.108,103.346c0.418,7.161-0.336,14.404,0.307,21.532
		c0.223,2.473,2.658,5.156,4.747,6.982c10.766,9.408,21.719,18.602,32.663,27.806c12.064,10.146,24.249,20.15,36.268,30.35
		c10.165,8.627,20.102,17.524,30.26,26.16c12.137,10.318,24.44,20.439,36.594,30.737c6.032,5.111,11.89,10.427,17.763,15.594
		c19.705-8.032,186.945-5.764,193.547-4.132c10.961,2.709,12.623,14.16,5.072,21.658c-49.896,49.55-99.531,99.362-149.276,149.064
		c-1.273,1.272-2.83,2.26-4.412,3.503c14.688,14.654,28.735,28.646,42.758,42.662c33.706,33.691,67.402,67.394,101.1,101.093
		c5.626,5.626,12.051,31.077,6.502,25.644c-3.214-3.147-28.998-16.137-32.179-19.318c-43.125-43.125-86.254-86.246-129.356-129.395
		c-1.284-1.286-2.285-2.855-5.548-5.172c-1.01,1.73-1.707,3.772-3.076,5.144c-49.551,49.66-99.24,99.183-148.692,148.941
		c-7.929,7.978-18.031,6.2-22.052-4.912c-5.898-16.298,2.278-196.599-3.632-203.07c-9.101-9.965-17.86-20.248-26.6-30.536
		c-10.206-12.014-20.157-24.243-30.363-36.258c-8.739-10.288-17.759-20.338-26.512-30.615
		c-10.545-12.379-20.932-24.892-31.402-37.336c-3.811-4.529-7.627-9.055-11.533-13.501c-0.557-0.634-1.678-1.208-2.474-1.134
		c-23.403,2.192-45.669-2.035-66.606-12.493C11.667,229.049,4.23,225.308,0,217.794C0,215.461,160.944-8.812,166.835,0.268z"/>
</g>
</svg>