<!-- Generator: Adobe Illustrator 19.2.1, SVG Export Plug-In  -->
<svg version="1.1"
	 xmlns="http://www.w3.org/2000/svg" xmlns:xlink="http://www.w3.org/1999/xlink" xmlns:a="http://ns.adobe.com/AdobeSVGViewerExtensions/3.0/"
	 x="0px" y="0px" width="456px" height="422px" viewBox="0 0 456 422" style="enable-background:new 0 0 456 422;"
	 xml:space="preserve">
<style type="text/css">
	.st0{fill:#E73D3E;}
</style>
<defs>
</defs>
<path class="st0" d="M0,0c0,12.497,25,409,25,422c140.333,0,266.667,0,407,0c0-13,24-409.001,24-422C442.834,0,12.666,0,0,0z
	 M75.507,228.707c8.701-14.373,17.026-28.975,25.449-43.516c3.121-5.389,3.083-5.243,7.56-1.234
	c14.12,12.644,28.417,25.09,42.579,37.687c7.529,6.697,14.917,13.554,22.379,20.327c3.401,3.087,6.827,6.146,10.772,9.695
	c3.088-5.522,5.941-10.564,8.739-15.638c11.865-21.516,25.491-41.871,41.279-60.676c12.184-14.512,24.67-28.806,37.653-42.602
	c16.523-17.559,33.604-34.597,50.606-51.7c7.362-7.405,15.127-14.41,23.038-21.908c6.969,11.614,13.906,23.101,20.761,34.637
	c2.319,3.903,6.424,8.134,6.047,11.841c-0.343,3.367-5.686,6.208-8.794,9.312c-10.968,10.951-22.557,21.359-32.741,32.996
	c-17.73,20.26-35.165,40.836-51.662,62.103c-18.183,23.44-32.525,49.417-44.747,76.392c-9.198,20.302-17.004,41.234-25.396,61.9
	c-1.948,4.797-3.756,9.652-5.968,15.356c-5.984-7.222-11.537-13.872-17.031-20.569c-6.76-8.241-13.086-16.877-20.294-24.703
	c-11.367-12.341-22.941-24.54-35.119-36.069c-11.337-10.733-23.611-20.473-35.407-30.727c-6.475-5.628-12.781-11.45-19.229-17.108
	C73.826,232.614,73.939,231.297,75.507,228.707z"/>
</svg>