<!-- Generator: Adobe Illustrator 19.1.0, SVG Export Plug-In  -->
<svg version="1.1"
	 xmlns="http://www.w3.org/2000/svg" xmlns:xlink="http://www.w3.org/1999/xlink" xmlns:a="http://ns.adobe.com/AdobeSVGViewerExtensions/3.0/"
	 x="0px" y="0px" width="497.233px" height="239.187px" viewBox="0 0 497.233 239.187"
	 style="enable-background:new 0 0 497.233 239.187;" xml:space="preserve">
<style type="text/css">
	.st0{fill:#E73D3E;}
	.st1{fill:#FFFFFF;}
	.st2{fill:#009EE2;}
	.st3{fill:#F29100;}
	.st4{font-family:'DKAstromonkey';}
	.st5{font-size:131.829px;}
</style>
<defs>
</defs>
<g>
	<path class="st0" d="M425.485,56.75c9.689-5.271,20.524-16.212,27.072-25.821C460.818,18.805,449.759,9.975,441.495,0l0,12.795
		c1.715,0,2.291,0.539,2.127,0.771c-2.391,3.396,0.751,6.86-3.711,13.544c-8.75,13.108-22.348,20.854-34.454,23.897
		c3.364-8.679,11.119-24.46,25.653-34.146c5.507-3.669,9.097-4.066,10.384-4.066L441.495,0h-0.002
		c-5.014,0.001-10.982,1.884-17.478,6.213c-25.48,16.979-33.082,47.952-33.082,47.952c-5.753-25.466-17.017-40.672-32.785-47.942
		c-3.011-1.389-7.419-4.521-9.364-2.056c-2.61,3.31-11.753,12.878-17.614,24.546c-6.479,12.899,17.467,22.717,29.522,28.037h-74.307
		v61.924h12.395l-5.763,86.368h97.915h93.904l-5.375-81.063l17.77-5.305V56.75H425.485z M352.791,17.843
		c10.896,5.023,18.637,15.237,23.534,31.11c-11.806-3.683-32.859-3.337-36.39-15.555"/>
	<g>
		<g>
			<path class="st1" d="M338.112,81.298l2.769,79.761l21.094-2.505l0.132-78.179h22.28l1.846,102.041l-69.873,0.396V80.243
				L338.112,81.298z"/>
			<path class="st1" d="M415.891,144.184l2.769,16.348l16.479,1.055v-23.467l-39.155-3.955l-0.923-53.394l64.336-2.109
				l-3.691,25.313h-13.711l0.923-6.592l-23.467,2.505v12.656l38.232,1.978l3.691,67.104l-63.149,2.373l-3.296-6.196l-0.791-32.563
				L415.891,144.184z"/>
		</g>
	</g>
	<g>
		<path class="st2" d="M283.955,62.566l2.133,35.066c1.503,0.687,3.34,0.133,7.331,0.133l4.398-0.2c1.888,0,3.279-0.528,4.138,1.188
			l0.514,22.658c0,7.896-1.373,11.844-4.119,11.844l-11.844,0.515h-3.089l-0.515,3.605l0.886,49.248c0,1.845-0.859,3.218-2.574,4.12
			l-20.988,5.407c-3.777,0-5.665-2.403-5.665-7.209v-1.03h0.515l-1.401-38.434v-13.389h-11.329l-34.503-1.03h3.442
			c-3.089-0.601-4.634-1.802-4.634-3.605l2.574-38.622c0-29.61-0.514-54.328-1.545-74.154v-6.179c0-2.403,1.031-3.605,3.089-3.605
			l19.732,1.545c1.459,0,2.66,0.687,3.605,2.06l-0.515,7.724c1.159,33.859,2.532,60.809,4.12,80.848h14.934V97.98l1.029-20.598
			v-13.39l0.515-39.136l0.515-2.06l-0.515-3.604c0-3.433,1.717-5.15,5.15-5.15l3.605-0.515h20.083"/>
	</g>
	<g>
		<path class="st3" d="M65.127,110.517l6.328,35.859l-21.357-1.055l0.527-13.711l-21.753-1.582l3.823,59.326l3.164,1.846h14.766
			l2.109-11.602H41.924l1.846-16.611l28.477,2.9l-2.9,49.834H19.248l-12.656-7.91l-2.637-84.375L16.348,112.1L65.127,110.517z"/>
		<path class="st3" d="M80.15,113.682h20.83v99.668H80.941L80.15,113.682z"/>
		<path class="st3" d="M113.634,109.99l50.889,0.264l-1.582,15.82l-26.895,2.109v23.203l22.412-1.318v19.248l-24.785,1.318
			l-2.637,45.088l-19.512-3.428L108.888,112.1L113.634,109.99z"/>
		<path class="st3" d="M181.657,213.613l3.296-86.748l-12.524-1.318l1.582-13.975h64.863l-1.846,17.402l-24.258-1.318l-7.91,88.066
			L181.657,213.613z"/>
	</g>
</g>
</svg>