<!-- Generator: Adobe Illustrator 19.2.1, SVG Export Plug-In  -->
<svg version="1.1"
	 xmlns="http://www.w3.org/2000/svg" xmlns:xlink="http://www.w3.org/1999/xlink" xmlns:a="http://ns.adobe.com/AdobeSVGViewerExtensions/3.0/"
	 x="0px" y="0px" width="222.732px" height="339.517px" viewBox="0 0 222.732 339.517"
	 style="enable-background:new 0 0 222.732 339.517;" xml:space="preserve">
<style type="text/css">
	.st0{fill:#E73D3E;}
	.st1{fill:#FFFFFF;}
	.st2{fill:#009EE2;}
	.st3{fill:#F29100;}
</style>
<defs>
</defs>
<g>
	<path id="XMLID_21_" class="st0" d="M96.008,211.552l-6.977,97.909c-0.67-0.027-1.344-0.045-2.026-0.045
		c-15.222,0-27.562,6.738-27.562,15.05c0,8.291,12.278,15.015,27.447,15.049l-0.001,0.002h27.679v-128.82l4.095-0.188v129.008
		h27.678c15.223,0,27.562-6.738,27.562-15.05c0-8.312-12.34-15.05-27.562-15.05c-0.73,0-1.45,0.02-2.165,0.051l-7.192-99.802
		L96.008,211.552z"/>
	<path class="st0" d="M146.872,59.922c10.23-5.566,21.671-17.118,28.585-27.264c8.724-12.802-2.954-22.125-11.68-32.658l0,13.51
		c1.811,0,2.419,0.569,2.246,0.814c-2.525,3.586,0.793,7.243-3.919,14.301c-9.239,13.84-23.597,22.02-36.38,25.232
		c3.552-9.164,11.741-25.827,27.087-36.054c5.815-3.874,9.605-4.293,10.964-4.293L163.777,0h-0.002
		c-5.294,0.001-11.596,1.99-18.455,6.56c-26.904,17.928-34.93,50.632-34.93,50.632c-6.074-26.889-17.968-42.945-34.617-50.621
		c-3.18-1.466-7.834-4.773-9.887-2.17c-2.756,3.495-12.41,13.598-18.598,25.917c-6.841,13.62,18.443,23.986,31.172,29.604H0v65.385
		h13.088l-6.085,91.195H110.39h99.152l-5.675-85.593l18.763-5.602V59.922H146.872z M70.116,18.84
		c11.505,5.304,19.678,16.088,24.849,32.848c-12.466-3.889-34.695-3.524-38.424-16.424"/>
	<path id="XMLID_19_" class="st1" d="M160.368,106.766l-41.418,2.6c-9.61,0.603-17.089,8.545-17.326,18.002
		c-3.66-4.188-9.138-6.717-15.085-6.343l-26.623,1.671c-10.157,0.638-17.945,9.469-17.307,19.626l7.333,20.203
		c4.155,10.51,9.469,17.945,19.626,17.307l20.582-1.292c6.407-0.402,11.865-4.068,14.866-9.267
		c2.824,7.347,10.195,12.382,18.44,11.864l34.838-2.187c10.156-0.638,17.945-9.469,17.307-19.626l4.392-35.251
		C179.357,113.917,170.525,106.129,160.368,106.766z"/>
	<g>
		
			<ellipse id="XMLID_18_" transform="matrix(0.9967 -0.081 0.081 0.9967 -11.6039 7.2035)" class="st0" cx="83.015" cy="146.674" rx="6.568" ry="6.568"/>
		
			<ellipse id="XMLID_17_" transform="matrix(0.9967 -0.081 0.081 0.9967 -10.9773 11.7687)" class="st0" cx="139.615" cy="141.231" rx="6.568" ry="6.568"/>
	</g>
	<polygon id="XMLID_16_" class="st2" points="0.389,87.511 0.814,96.071 221.074,87.189 222.732,76.558 	"/>
	<g>
		<path id="XMLID_1_" class="st2" d="M45.854,54.023c-0.269,0.166-0.712,0.963-1.224,2.091c-0.187-0.05-0.335-0.082-0.428-0.089
			c-0.699,0.219-3.645,7.847-4.573,11.532c-1.942,7.712-1.669,13.962-1.669,13.962c-1.53,1.365-5.3,6.716-6.071,8.617
			c0.062,0.044,0.154,0.109,0.268,0.189c-0.17-0.12-0.268-0.189-0.268-0.189s-5.978,1.845-12.587,6.269
			c-3.157,2.113-9.35,7.454-9.321,8.186c0.038,0.086,0.118,0.214,0.228,0.373c-0.89,0.862-1.491,1.547-1.557,1.856
			c0.478,1.082,7.15,8.511,10.978,11.292c3.829,2.78,14.294,6.351,15.093,5.922c0.198-0.106,0.594-0.868,1.084-2.007
			c0.287,0.039,0.489,0.042,0.575-0.005c0.809-0.435,4.905-11.693,5.257-15.303c0.336-3.447-0.094-7.131-0.966-10.393
			c0.062,0.044,0.119,0.084,0.168,0.118c1.724-1.239,5.484-6.576,6.072-8.617c-0.048-0.034-0.106-0.075-0.168-0.118
			c3.366-0.277,6.979-1.111,10.112-2.587c3.281-1.546,12.505-9.191,12.643-10.099c0.015-0.096-0.055-0.286-0.189-0.543
			c0.908-0.845,1.492-1.475,1.525-1.697c0.136-0.896-6.748-9.55-10.655-12.221C56.274,57.892,47.034,54.11,45.854,54.023z
			 M40.248,96.026c0.052,0.037,0.102,0.072,0.149,0.105C40.349,96.098,40.3,96.063,40.248,96.026z M32.375,90.479
			c0.088,0.062,0.183,0.129,0.288,0.203C32.559,90.608,32.46,90.539,32.375,90.479z M32.843,90.809
			c0.097,0.068,0.198,0.139,0.305,0.215C33.041,90.948,32.939,90.876,32.843,90.809z M33.38,91.187
			c0.367,0.259,0.779,0.549,1.218,0.858C34.157,91.734,33.745,91.444,33.38,91.187z M34.792,92.182
			c0.305,0.215,0.62,0.437,0.94,0.662C35.411,92.618,35.096,92.396,34.792,92.182z M36.386,93.305
			c0.1,0.071,0.201,0.142,0.301,0.212C36.586,93.446,36.486,93.376,36.386,93.305z M37.963,94.416
			c0.068,0.048,0.134,0.094,0.2,0.141C38.096,94.51,38.03,94.464,37.963,94.416z M42.422,84.664c0.312,0.22,0.624,0.44,0.932,0.657
			C43.047,85.104,42.734,84.883,42.422,84.664z M38.215,81.699c0.105,0.074,0.238,0.168,0.399,0.281
			C38.46,81.872,38.325,81.777,38.215,81.699z M38.768,82.088c0.132,0.093,0.277,0.195,0.434,0.306
			C39.047,82.285,38.901,82.182,38.768,82.088z M39.28,82.45c0.123,0.087,0.251,0.177,0.387,0.273
			C39.533,82.628,39.403,82.536,39.28,82.45z M40.44,83.267c0.106,0.075,0.214,0.15,0.323,0.228
			C40.654,83.418,40.546,83.342,40.44,83.267z M41.178,83.787l0.007,0.005L41.178,83.787z"/>
		<path class="st3" d="M45.679,91.754l-1.568,2.282c-1.331,1.938-4.006,2.434-5.944,1.103l-3.4-2.336
			c-1.938-1.331-2.434-4.006-1.103-5.944l1.568-2.282c1.331-1.938,4.006-2.434,5.944-1.103l3.4,2.336
			C46.514,87.141,47.01,89.816,45.679,91.754z"/>
	</g>
</g>
</svg>