<!-- Generator: Adobe Illustrator 19.2.1, SVG Export Plug-In  -->
<svg version="1.1"
	 xmlns="http://www.w3.org/2000/svg" xmlns:xlink="http://www.w3.org/1999/xlink" xmlns:a="http://ns.adobe.com/AdobeSVGViewerExtensions/3.0/"
	 x="0px" y="0px" width="166.951px" height="162.355px" viewBox="0 0 166.951 162.355"
	 style="enable-background:new 0 0 166.951 162.355;" xml:space="preserve">
<style type="text/css">
	.st0{fill:#E73D3E;}
</style>
<defs>
</defs>
<path class="st0" d="M110.14,44.935c7.672-4.174,16.251-12.837,21.436-20.445c6.542-9.6-2.215-16.592-8.759-24.49l0,10.131
	c1.358,0,1.814,0.427,1.684,0.61c-1.894,2.689,0.595,5.432-2.938,10.724c-6.928,10.379-17.695,16.512-27.281,18.922
	c2.664-6.872,8.804-19.368,20.312-27.037c4.361-2.905,7.203-3.219,8.222-3.219L122.816,0h-0.001
	c-3.97,0.001-8.696,1.492-13.839,4.919C88.801,18.363,82.782,42.888,82.782,42.888C78.227,22.724,69.307,10.684,56.822,4.927
	c-2.384-1.1-5.875-3.58-7.414-1.628c-2.067,2.621-9.306,10.197-13.947,19.436c-5.13,10.213,13.83,17.987,23.376,22.2H0v49.032h9.815
	l-4.563,68.387h77.53h74.354l-4.256-64.186l14.071-4.201V44.935H110.14z M52.58,14.128c8.628,3.977,14.757,12.065,18.634,24.633
	c-9.349-2.916-26.018-2.643-28.814-12.316"/>
</svg>