<!-- Generator: Adobe Illustrator 19.2.1, SVG Export Plug-In  -->
<svg version="1.1"
	 xmlns="http://www.w3.org/2000/svg" xmlns:xlink="http://www.w3.org/1999/xlink" xmlns:a="http://ns.adobe.com/AdobeSVGViewerExtensions/3.0/"
	 x="0px" y="0px" width="247.919px" height="286.44px" viewBox="0 0 247.919 286.44"
	 style="enable-background:new 0 0 247.919 286.44;" xml:space="preserve">
<style type="text/css">
	.st0{fill:#FFFFFF;}
</style>
<defs>
</defs>
<g>
	<path class="st0" d="M130.317,69.018l5.452,85.644l-24.081,0.228l-2.271-62.019l-8.633,0.455l-1.136-10.677l11.813-12.04
		L130.317,69.018z"/>
</g>
<g>
	<path class="st0" d="M158.53,102.611l-19.636,1.25l-0.052-5.521l14.219-0.521l5.104,0.469L158.53,102.611z"/>
</g>
<g>
	<path class="st0" d="M157.018,69.271l2.531,2.442l0.654,18.585l-2.051,4.319l-18.547,0.142l-1.658-4.814l0.131-16.921l3.403-4.319
		L157.018,69.271z M146.632,87.503l3.972-0.142l0.785-4.567l-0.96-7.752l-4.844,0.92L146.632,87.503z"/>
</g>
<path class="st0" d="M247.919,248.522c0,0.422-5.272,5.68-6.722,5.783c-4.011,0.285-8.034,0.399-12.053,0.541
	c-3.274,0.116-6.551,0.16-9.826,0.268c-1.335,0.044-2.695,0.031-3.998,0.282c-6.44,1.24-11.351,4.618-14.782,10.307
	c-4.116,6.824-19.491,24.094-22.028,20.163c-1.455-2.255-2.776-4.597-4.126-6.919c-2.555-4.393-5.074-8.808-7.633-13.199
	c-3.1-5.317-6.242-10.61-9.337-15.93c-2.889-4.964-5.732-9.954-8.612-14.923c-2.92-5.039-5.865-10.064-8.787-15.103
	c-0.571-0.985-1.022-1.052-1.937-0.341c-2.093,1.626-4.126,3.355-6.35,4.782c-2.982,1.913-6.324,2.776-9.844,1.896
	c-4.49-1.123-8.316-3.567-11.852-6.481c-0.95-0.783-1.507-0.76-2.172,0.361c-2.128,3.59-4.221,7.201-6.315,10.811
	c-2.011,3.467-4.004,6.945-6.01,10.415c-2.646,4.578-5.291,9.156-7.948,13.727c-2.035,3.501-4.094,6.988-6.128,10.49
	c-2.261,3.894-4.5,7.802-6.76,11.698c-1.762,3.037-18.036,4.027-19.661,1.438c-2.326-3.707-4.595-7.45-6.951-11.137
	c-1.74-2.724-13.908-11.709-18.524-11.849c-3.725-0.112-7.447-0.333-11.17-0.491c-4.187-0.178-17.221-1.606-18.395-4.056
	c0-0.929,4.191-10.633,5.843-13.494c2.025-3.507,4.08-6.996,6.115-10.497c2.263-3.893,4.521-7.79,6.776-11.688
	c2.027-3.504,4.04-7.017,6.07-10.52c2.278-3.932,4.565-7.859,6.851-11.786c2.079-3.57,4.138-7.152,6.255-10.699
	c0.869-1.457,0.513-2.234-1.173-2.748c-3.784-1.154-15.582-9.736-15.745-13.576c-0.18-4.222,0.836-8.239,1.692-12.303
	c0.621-2.949,1.275-5.91,1.584-8.9c0.434-4.197-1.335-7.789-3.858-10.983c-3.064-3.88-6.306-7.619-9.393-11.482
	c-1.64-2.051-2.52-14.383-0.226-17.456c3.048-4.083,6.135-8.141,9.338-12.103c3.624-4.484,5.298-9.438,4.164-15.181
	c-0.911-4.614-2.042-9.193-2.737-13.838c-0.343-2.294,4.556-13.804,8.463-15.294c4.267-1.627,8.658-2.931,13.002-4.356
	c4.998-1.641,8.991-4.448,10.976-9.529c1.454-3.722,2.867-7.462,4.222-11.221c1.086-3.015,12.045-12.11,16.267-11.535
	c4.266,0.581,8.41,2.011,12.649,2.859c2.433,0.487,4.946,0.701,7.429,0.752c1.111,0.023,2.408-0.417,3.323-1.067
	c2.567-1.824,4.98-3.864,7.452-5.822c4.161-3.296,8.474-6.353,13.432-8.364c3.355-1.361,16.191,3.768,18.973,6.051
	c2.279,1.871,4.514,3.803,6.871,5.572c3.824,2.87,8.129,4.15,12.885,3.149c4.919-1.035,9.793-2.286,14.704-3.365
	c2.456-0.54,18.31,15.492,19.999,19.92c1.082,2.838,2.321,5.616,4.48,7.801c2.89,2.924,6.704,4.137,10.509,5.312
	c4.291,1.325,8.675,2.399,12.658,4.57c2.794,1.522,6.476,12.705,5.982,15.612c-0.718,4.224-1.843,8.378-2.612,12.595
	c-0.342,1.875-0.511,3.863-0.284,5.742c0.464,3.843,2.593,7.003,4.818,10.054c3.071,4.212,6.28,8.328,9.243,12.614
	c1.522,2.202,1.507,14.094-0.632,16.81c-3.034,3.85-6.279,7.535-9.296,11.398c-2.336,2.991-4.102,6.336-3.671,10.288
	c0.367,3.362,0.975,6.707,1.664,10.021c0.831,3.99-6.375,22.724-9.273,23.752c-2.241,0.794-4.514,1.497-6.794,2.247
	c0.084,0.265,0.11,0.473,0.208,0.639c1.676,2.848,3.38,5.68,5.039,8.537c3.733,6.43,7.432,12.88,11.169,19.308
	c3.261,5.608,6.554,11.198,9.834,16.795c2.255,3.848,4.635,7.63,6.732,11.563C243.977,240.968,246.749,244.328,247.919,248.522z
	 M122.056,197.488c24.937-0.23,45.027-8.517,61.482-24.884c15.688-15.605,23.997-34.853,24.794-56.957
	c0.857-23.779-7.182-44.557-23.586-61.733c-16.078-16.834-36.163-25.571-59.393-25.846c-25.249-0.299-46.838,9.036-63.995,27.644
	c-14.789,16.041-22.345,35.321-22.241,57.097c0.109,23.105,8.3,43.297,24.688,59.804
	C80.257,189.185,100.433,197.048,122.056,197.488z"/>
<path class="st0" d="M122.204,191.055c-19.988-0.407-38.637-7.675-53.846-22.994c-15.149-15.259-22.72-33.923-22.821-55.281
	c-0.095-20.128,6.888-37.951,20.559-52.778c15.859-17.201,35.815-25.83,59.155-25.554c21.472,0.254,40.039,8.331,54.901,23.891
	c15.163,15.877,22.595,35.084,21.802,57.064c-0.737,20.432-8.417,38.225-22.919,52.649
	C163.826,183.182,145.255,190.843,122.204,191.055z M125.226,46.428c-19.708,0.079-35.192,6.384-47.965,18.803
	C64.695,77.45,58.097,92.634,57.426,110.133c-0.682,17.787,4.945,33.574,16.912,46.782c12.259,13.53,27.677,21.094,45.97,22.032
	c18.971,0.973,35.65-5.067,49.434-18.185c12.474-11.871,19.361-26.618,20.301-43.85c1.025-18.78-4.706-35.41-17.578-49.187
	C159.284,53.616,142.789,46.641,125.226,46.428z"/>
</svg>