<!-- Generator: Adobe Illustrator 19.2.1, SVG Export Plug-In  -->
<svg version="1.1"
	 xmlns="http://www.w3.org/2000/svg" xmlns:xlink="http://www.w3.org/1999/xlink" xmlns:a="http://ns.adobe.com/AdobeSVGViewerExtensions/3.0/"
	 x="0px" y="0px" width="328.263px" height="272.84px" viewBox="0 0 328.263 272.84"
	 style="enable-background:new 0 0 328.263 272.84;" xml:space="preserve">
<style type="text/css">
	.st0{fill:#E73D3E;}
</style>
<defs>
</defs>
<g>
	<path class="st0" d="M77.63,108.23C104.282,95.899,295.934,15.013,319.916,4.293c2.27-1.014,5.435-0.025,8.184,0.033
		c-0.111,2.903,0.683,6.244-0.477,8.64c-9.697,20.041-19.784,39.893-29.695,59.832c-19.453,39.134-38.903,78.27-58.281,117.441
		c-7.905,15.979-15.616,32.054-23.427,48.079c-1.343,2.756-2.772,5.098-6.633,4.75c-3.948-0.356-4.226-3.106-4.632-5.87
		c-0.951-6.47-1.811-12.954-2.656-19.44c-1.332-10.226-2.691-20.45-3.907-30.691c-1.123-9.451-2.036-18.926-3.114-28.383
		c-0.724-6.348-1.574-12.682-2.432-19.536c-11.936-2.025-24.12-4.098-36.305-6.159c-13.196-2.232-26.393-4.465-39.592-6.678
		c-8.693-1.458-17.416-2.755-26.073-4.401c-2.619-0.498-5.061-1.923-7.584-2.923C83.291,116.988,77.63,110.23,77.63,108.23z"/>
</g>
<g>
	<g>
		<path class="st0" d="M162.32,170.462c-5.656,5.451-11.393,10.815-17.211,16.092c-4.062,3.685,1.966,9.684,6.013,6.013
			c5.818-5.277,11.555-10.641,17.211-16.092C172.282,172.67,166.264,166.661,162.32,170.462L162.32,170.462z"/>
	</g>
</g>
<g>
	<g>
		<path class="st0" d="M133.198,197.612c-6.446,3.79-12.547,8.046-18.406,12.689c-4.287,3.397,1.766,9.378,6.013,6.013
			c5.283-4.186,10.876-7.944,16.685-11.359C142.204,202.182,137.93,194.829,133.198,197.612L133.198,197.612z"/>
	</g>
</g>
<g>
	<g>
		<path class="st0" d="M97.383,223.266c-5.394,3.193-10.95,6.047-16.686,8.575c-4.997,2.202-0.675,9.531,4.292,7.343
			c5.736-2.527,11.292-5.382,16.686-8.575C106.381,227.824,102.108,220.47,97.383,223.266L97.383,223.266z"/>
	</g>
</g>
<g>
	<g>
		<path class="st0" d="M61.376,241.259c-5.407,3.277-11.036,5.973-17.011,8.049c-5.137,1.785-2.928,10.003,2.261,8.2
			c6.652-2.311,13.018-5.256,19.042-8.907C70.342,245.77,66.073,238.413,61.376,241.259L61.376,241.259z"/>
	</g>
</g>
<g>
	<g>
		<path class="st0" d="M27.439,256.68c-4.841,2.126-9.503,4.568-14.007,7.336c-4.655,2.861-0.388,10.219,4.292,7.343
			c4.504-2.768,9.167-5.21,14.007-7.336c2.119-0.931,2.567-3.987,1.525-5.818C32.014,256.023,29.529,255.762,27.439,256.68
			L27.439,256.68z"/>
	</g>
</g>
<g>
	<g>
		<path class="st0" d="M8.687,250.733c0,6,0,12,0,18c0,5.472,8.504,5.481,8.504,0c0-6,0-12,0-18
			C17.191,245.261,8.687,245.252,8.687,250.733L8.687,250.733z"/>
	</g>
</g>
<g>
	<g>
		<path class="st0" d="M9.685,22.149C9.616,16.475,9.106,10.867,8.27,5.257c-0.341-2.289-3.204-3.504-5.23-2.97
			C0.6,2.93-0.267,5.257,0.07,7.517c0.722,4.848,1.052,9.732,1.111,14.631C1.247,27.617,9.751,27.632,9.685,22.149L9.685,22.149z"/>
	</g>
</g>
<g>
	<g>
		<path class="st0" d="M22.486,0.02C16.51,0.556,10.534,1.091,4.558,1.626c-5.407,0.484-5.458,8.993,0,8.504
			c5.976-0.535,11.952-1.07,17.928-1.606C27.893,8.04,27.944-0.469,22.486,0.02L22.486,0.02z"/>
	</g>
</g>
<g>
	<g>
		<path class="st0" d="M7.354,214.4c0,5.556,0,11.111,0,16.667c0,5.472,8.504,5.481,8.504,0c0-5.556,0-11.111,0-16.667
			C15.858,208.928,7.354,208.919,7.354,214.4L7.354,214.4z"/>
	</g>
</g>
<g>
	<g>
		<path class="st0" d="M7.354,182.4c0,5.111,0,10.222,0,15.333c0,5.472,8.504,5.481,8.504,0c0-5.111,0-10.222,0-15.333
			C15.858,176.928,7.354,176.919,7.354,182.4L7.354,182.4z"/>
	</g>
</g>
<g>
	<g>
		<path class="st0" d="M5.929,147.079c0.725,5.537,0.969,11.074,0.733,16.653c-0.231,5.472,8.273,5.461,8.504,0
			c0.236-5.579-0.008-11.116-0.733-16.653c-0.3-2.295-1.74-4.226-4.252-4.252C8.114,142.805,5.631,144.802,5.929,147.079
			L5.929,147.079z"/>
	</g>
</g>
<g>
	<g>
		<path class="st0" d="M4.947,111.062c-0.037,6.473,0.356,12.904,1.181,19.323c0.688,5.353,9.201,5.422,8.504,0
			c-0.825-6.42-1.218-12.851-1.181-19.323C13.483,105.589,4.979,105.582,4.947,111.062L4.947,111.062z"/>
	</g>
</g>
<g>
	<g>
		<path class="st0" d="M3.947,76.062C3.91,82.534,4.303,88.965,5.128,95.385c0.688,5.353,9.201,5.422,8.504,0
			c-0.825-6.42-1.218-12.851-1.181-19.323C12.483,70.589,3.979,70.582,3.947,76.062L3.947,76.062z"/>
	</g>
</g>
<g>
	<g>
		<path class="st0" d="M2.947,39.062C2.91,45.534,3.303,51.965,4.128,58.385c0.688,5.353,9.201,5.422,8.504,0
			c-0.825-6.42-1.218-12.851-1.181-19.323C11.483,33.589,2.979,33.582,2.947,39.062L2.947,39.062z"/>
	</g>
</g>
</svg>