<!-- Generator: Adobe Illustrator 19.2.1, SVG Export Plug-In  -->
<svg version="1.1"
	 xmlns="http://www.w3.org/2000/svg" xmlns:xlink="http://www.w3.org/1999/xlink" xmlns:a="http://ns.adobe.com/AdobeSVGViewerExtensions/3.0/"
	 x="0px" y="0px" width="33px" height="23.02px" viewBox="0 0 33 23.02" style="enable-background:new 0 0 33 23.02;"
	 xml:space="preserve">
<style type="text/css">
	.st0{fill:#F29100;}
</style>
<defs>
</defs>
<path class="st0" d="M0,0c0,0.751,1.809,22.322,1.809,23.02c10.156,0,19.298,0,29.454,0C31.263,22.322,33,0.751,33,0
	C32.047,0,0.917,0,0,0z M21.486,13.482l-0.645,4.664l-1.251,0.607l-8.569-0.341l0.303-3.83l6.218,0.379l-3.109-2.692l-0.076-2.654
	l3.792-1.479l0.038-0.986l-5.649,0.152l-0.265-3.033l8.114,0.076l1.365,1.592l0.228,3.867l-2.844,2.085L21.486,13.482z"/>
</svg>