<!-- Generator: Adobe Illustrator 19.2.1, SVG Export Plug-In  -->
<svg version="1.1"
	 xmlns="http://www.w3.org/2000/svg" xmlns:xlink="http://www.w3.org/1999/xlink" xmlns:a="http://ns.adobe.com/AdobeSVGViewerExtensions/3.0/"
	 x="0px" y="0px" width="222.63px" height="339.517px" viewBox="0 0 222.63 339.517"
	 style="enable-background:new 0 0 222.63 339.517;" xml:space="preserve">
<style type="text/css">
	.st0{fill:#009EE2;}
	.st1{fill:#FFFFFF;}
	.st2{fill:#E73D3E;}
	.st3{fill:#F29100;}
</style>
<defs>
</defs>
<g>
	<path id="XMLID_22_" class="st0" d="M96.008,211.552l-6.977,97.909c-0.67-0.027-1.344-0.045-2.026-0.045
		c-15.222,0-27.562,6.738-27.562,15.05c0,8.291,12.278,15.015,27.447,15.049l-0.001,0.002h27.679v-128.82l4.095-0.188v129.008
		h27.678c15.223,0,27.562-6.738,27.562-15.05c0-8.312-12.34-15.05-27.562-15.05c-0.73,0-1.45,0.02-2.165,0.051l-7.192-99.802
		L96.008,211.552z"/>
	<path class="st0" d="M146.872,59.922c10.23-5.566,21.671-17.118,28.585-27.264c8.724-12.802-2.954-22.125-11.68-32.658l0,13.51
		c1.811,0,2.419,0.569,2.246,0.814c-2.525,3.586,0.793,7.243-3.919,14.301c-9.239,13.84-23.597,22.02-36.38,25.232
		c3.552-9.164,11.741-25.827,27.087-36.054c5.815-3.874,9.605-4.293,10.964-4.293L163.777,0h-0.002
		c-5.294,0.001-11.596,1.99-18.455,6.56c-26.904,17.928-34.93,50.632-34.93,50.632c-6.074-26.889-17.968-42.945-34.617-50.621
		c-3.18-1.466-7.834-4.773-9.887-2.17c-2.756,3.495-12.41,13.598-18.598,25.917c-6.841,13.62,18.443,23.986,31.172,29.604H0v65.385
		h13.088l-6.085,91.195H110.39h99.152l-5.675-85.593l18.763-5.602V59.922H146.872z M70.116,18.84
		c11.505,5.304,19.678,16.088,24.849,32.848c-12.466-3.889-34.695-3.524-38.424-16.424"/>
	<path id="XMLID_20_" class="st1" d="M169.738,91.373l-48.398-3.555c-9.61,0.603-17.089,8.545-17.326,18.002
		c-3.66-4.188-9.138-6.717-15.085-6.343l-26.623,1.671c-10.157,0.638-17.945,9.469-17.307,19.626l7.333,20.203
		c4.155,10.51,9.469,17.945,19.626,17.307l20.582-1.292c6.407-0.402,11.865-4.068,14.866-9.267
		c2.824,7.347,10.195,12.382,18.44,11.864l34.838-2.187c10.156-0.638,17.945-9.469,17.307-19.626l3.34-26.805
		C180.694,100.815,179.894,90.736,169.738,91.373z"/>
	<g>
		
			<ellipse id="XMLID_19_" transform="matrix(0.9967 -0.081 0.081 0.9967 -8.6738 8.0541)" class="st0" cx="94.967" cy="110.972" rx="6.568" ry="6.568"/>
		
			<ellipse id="XMLID_18_" transform="matrix(0.9967 -0.081 0.081 0.9967 -8.0472 12.6193)" class="st0" cx="151.568" cy="105.529" rx="6.568" ry="6.568"/>
	</g>
	<path id="XMLID_3_" class="st2" d="M142.775,170.732c-0.291-0.081-1.138,0.125-2.262,0.497c-0.086-0.164-0.159-0.289-0.215-0.359
		c-0.607-0.349-7.872,2.53-11.06,4.268c-6.673,3.637-10.883,7.883-10.883,7.883c-1.95-0.188-8.152,0.635-9.986,1.326
		c0.009,0.072,0.024,0.179,0.041,0.311c-0.026-0.197-0.041-0.311-0.041-0.311s-5.172-3-12.563-4.77
		c-3.531-0.846-11.295-1.729-11.791-1.234c-0.036,0.082-0.074,0.222-0.114,0.402c-1.182-0.066-2.053-0.043-2.313,0.111
		c-0.449,1.037-1.338,10.538-0.807,15.029c0.531,4.491,4.811,14.153,5.63,14.435c0.203,0.07,0.995-0.146,2.112-0.54
		c0.159,0.227,0.288,0.37,0.376,0.401c0.83,0.285,11.389-4.14,14.151-6.234c2.638-1.999,4.945-4.69,6.669-7.418
		c0.01,0.072,0.018,0.138,0.026,0.194c1.988,0.407,8.172-0.414,9.986-1.326c-0.007-0.056-0.016-0.123-0.026-0.194
		c2.377,2.183,5.306,4.178,8.374,5.42c3.213,1.301,14.561,2.818,15.287,2.326c0.077-0.052,0.165-0.224,0.259-0.485
		c1.181,0.089,2.002,0.091,2.18-0.029c0.717-0.486,2.328-10.93,1.669-15.404C146.816,180.555,143.479,171.616,142.775,170.732z
		 M109.655,194.034c0.008,0.06,0.016,0.118,0.023,0.173C109.671,194.152,109.664,194.095,109.655,194.034z M108.444,184.911
		c0.014,0.102,0.028,0.213,0.044,0.334C108.472,185.124,108.457,185.01,108.444,184.911z M108.516,185.453
		c0.015,0.112,0.03,0.229,0.047,0.353C108.547,185.683,108.531,185.564,108.516,185.453z M108.599,186.075
		c0.056,0.425,0.12,0.903,0.187,1.411C108.718,186.975,108.655,186.498,108.599,186.075z M108.816,187.712
		c0.047,0.353,0.095,0.719,0.145,1.089C108.911,188.43,108.863,188.065,108.816,187.712z M109.061,189.559
		c0.015,0.116,0.031,0.233,0.046,0.349C109.092,189.791,109.077,189.675,109.061,189.559z M109.304,191.386
		c0.01,0.078,0.021,0.155,0.031,0.232C109.324,191.541,109.314,191.465,109.304,191.386z M119.042,188.193
		c0.048,0.362,0.096,0.724,0.143,1.08C119.138,188.916,119.09,188.554,119.042,188.193z M118.394,183.316
		c0.016,0.122,0.037,0.276,0.061,0.462C118.432,183.601,118.411,183.444,118.394,183.316z M118.479,183.957
		c0.02,0.153,0.043,0.321,0.067,0.503C118.522,184.281,118.5,184.111,118.479,183.957z M118.558,184.551
		c0.019,0.143,0.039,0.291,0.059,0.448C118.597,184.845,118.577,184.694,118.558,184.551z M118.737,185.896
		c0.016,0.123,0.033,0.247,0.05,0.374C118.77,186.143,118.753,186.019,118.737,185.896z M118.85,186.75
		c0,0.003,0.001,0.005,0.001,0.005S118.85,186.753,118.85,186.75z"/>
	<polygon id="XMLID_2_" class="st2" points="8.907,178.375 7.525,199.09 88.399,199.09 88.399,185.988 	"/>
	<polygon id="XMLID_1_" class="st2" points="144.742,184.048 145.391,197.134 208.572,197.134 208.397,181.016 	"/>
	<path class="st3" d="M115.807,194.883l-1.789,0.259c-2.452,0.355-4.748-1.36-5.103-3.812l-0.445-3.072
		c-0.355-2.452,1.36-4.748,3.812-5.103l1.789-0.259c2.452-0.355,4.748,1.36,5.103,3.812l0.445,3.072
		C119.974,192.231,118.258,194.528,115.807,194.883z"/>
</g>
</svg>