<!-- Generator: Adobe Illustrator 19.2.1, SVG Export Plug-In  -->
<svg version="1.1"
	 xmlns="http://www.w3.org/2000/svg" xmlns:xlink="http://www.w3.org/1999/xlink" xmlns:a="http://ns.adobe.com/AdobeSVGViewerExtensions/3.0/"
	 x="0px" y="0px" width="167px" height="162.421px" viewBox="0 0 167 162.421" style="enable-background:new 0 0 167 162.421;"
	 xml:space="preserve">
<style type="text/css">
	.st0{fill:#E73D3E;}
</style>
<defs>
</defs>
<g>
	<path class="st0" d="M62.209,120.108c-1.729-0.966-3.667-1.482-5.637-0.979c-2.691,0.688-4.349,2.809-3.837,6.639
		c0.673,5.031,3.602,8.426,8.083,10.552c1.649,0.783,3.461,1.037,5.205,0.405c2.575-0.933,3.512-2.979,3.443-5.611
		c-0.06-0.579-0.063-1.172-0.19-1.736C68.337,125.214,65.885,122.161,62.209,120.108z"/>
	<path class="st0" d="M93.238,82.803c-1.091-0.876-1.912-1.69-1.574-3.185c0.027-0.12,0.001-0.252,0.003-0.378
		c0.019-0.935-0.475-1.52-1.348-1.669c-0.923-0.157-1.761-0.136-2.121,0.894c-0.161,0.46-0.297,0.957-0.365,0.957
		c-2.885,0-5.632,0-8.46,0c-0.151,0-0.352-0.671-0.551-1.162c-0.377-0.931-1.257-1.03-1.96-0.74
		c-0.576,0.238-1.05,1.011-1.338,1.629c-0.209,0.45,0.028,1.111-0.064,1.643c-0.072,0.412-0.259,0.884-0.545,1.178
		c-0.724,0.745-1.604,1.35-2.292,2.124c-1.104,1.244-1.728,2.84-1.601,4.429c0.28,3.512,2.491,5.867,5.58,7.107
		c5.745,2.307,11.456,2.265,16.565-1.68C97.056,90.946,97.272,86.043,93.238,82.803z M90.239,92.774
		c-2.105,1.145-3.552,1.46-6.696,1.469c-2.736,0.024-5.272-0.468-7.593-2.136c-3.28-2.358-2.638-6.218,0.61-7.986
		c4.629-2.52,9.318-2.534,13.971-0.022c1.641,0.886,2.869,2.219,2.863,4.146C93.387,90.375,92.049,91.79,90.239,92.774z"/>
	<path class="st0" d="M167,45.421h-56.761c7.671-5,16.294-13.08,21.478-20.688C138.258,15.133,129,7.898,123,0v10.132
		c1,0,1.771,0.427,1.642,0.61c-1.894,2.689,0.573,5.432-2.96,10.724c-6.928,10.379-17.706,16.512-27.292,18.922
		c2.664-6.872,8.799-19.368,20.307-27.037c4.361-2.905,7.2-3.009,8.219-3.009l-0.001-9.921h-0.001c-3.97,0-8.696,1.282-13.839,4.709
		C88.9,18.574,82.88,42.993,82.88,42.993C78.325,22.829,69.406,10.736,56.921,4.98c-2.384-1.099-5.875-3.606-7.414-1.654
		C47.44,5.946,40.201,13.753,35.56,22.991c-5.13,10.213,13.83,17.43,23.376,22.43H0v49h9.914l-4.563,68h77.53h74.354l-4.281-64.22
		L167,93.968V45.421z M42.499,26.445l10.18-12.316c8.628,3.977,14.757,12.064,18.634,24.633
		C61.965,35.845,45.295,36.118,42.499,26.445z M119,125.844c0,0.128-0.243,0.254-0.246,0.384c-0.062,2.704-1.115,5.083-2.582,7.258
		c-3.511,5.208-8.195,8.323-14.748,7.77c-2.23-0.188-4.185-1.176-5.581-2.886c-0.616-0.754-1.163-0.953-1.987-0.889
		c-3.237,0.251-6.472,0.668-9.711,0.708c-3.294,0.04-6.61-0.145-9.881-0.528c-1.48-0.174-2.326,0.013-3.388,1.157
		c-2.434,2.621-5.848,3.072-9.042,2.345c-6.599-1.501-10.988-5.774-12.993-12.27c-0.332-1.076-0.841-2.2-0.841-3.302
		c0-0.59,0-1.18,0-1.77c0-0.17,0.314-0.336,0.327-0.51c0.194-2.789,1.306-5.144,3.656-6.726c1.468-0.988,2.677-1.889,2.954-3.918
		c0.473-3.468,2.329-6.43,4.536-9.08c1.645-1.974,3.644-3.612,6.141-4.758c0,5.577,0.028,11.005-0.017,16.433
		c-0.01,1.172,0.143,2.05,1.301,2.697c0.908,0.507,1.624,1.357,2.513,2.131c0-6.627,0.01-13.184-0.026-19.741
		c-0.002-0.342-0.317-0.759-0.602-1.01c-1.682-1.485-3.571-2.775-5.065-4.425c-2.558-2.824-4.013-6.21-4.173-10.089
		c-0.115-2.772,0.168-5.465,1.26-8.05c0.141-0.334,0.127-0.983-0.091-1.18c-2-1.8-2.55-4.06-2.449-6.648
		c0.105-2.704,2.248-5.939,4.811-6.805c3.707-1.252,7.39-0.646,9.886,2.675c0.432,0.575,0.744,0.641,1.422,0.394
		c3.024-1.102,6.22-1.635,9.383-1.494c3.022,0.135,6.025,0.899,9.01,1.517c0.682,0.141,0.988,0.135,1.427-0.417
		c0.569-0.716,1.238-1.401,1.989-1.915c3.432-2.348,9.003-1.801,11.579,2.358c1.706,2.755,1.648,7.391-0.72,9.618
		c-0.925,0.87-0.997,1.594-0.483,2.68c1.353,2.862,1.387,5.981,0.9,8.959c-0.902,5.517-4.149,9.627-8.774,12.642
		c-0.753,0.491-0.845,0.979-0.841,1.812C97.88,106.996,98,113.021,98,119.046c0,0.355,0,0.709,0,1.11
		c1-0.867,1.712-1.718,2.678-2.379c0.724-0.496,0.95-0.986,0.942-1.888c-0.049-5.637-0.058-11.275-0.058-17.022
		c0.355,0.154,0.613,0.238,0.852,0.381c5.41,3.245,8.744,7.967,9.979,14.146c0.227,1.136,0.554,1.932,1.735,2.484
		c2.023,0.946,3.355,2.667,4.09,4.779c0.329,0.946,0.782,1.939,0.782,2.911C119,124.327,119,125.086,119,125.844z"/>
	<path class="st0" d="M110.475,119.095c-2.247-0.456-4.37,0.232-6.252,1.474c-3.961,2.613-6.412,6.138-6.497,11.063
		c-0.046,2.646,2.024,5.708,5.361,5.34c2.197,0.136,3.45-0.474,5.312-1.759c3.241-2.237,5.479-5.226,6.061-9.301
		C114.937,122.571,113.425,119.693,110.475,119.095z"/>
</g>
</svg>