<!-- Generator: Adobe Illustrator 19.2.1, SVG Export Plug-In  -->
<svg version="1.1"
	 xmlns="http://www.w3.org/2000/svg" xmlns:xlink="http://www.w3.org/1999/xlink" xmlns:a="http://ns.adobe.com/AdobeSVGViewerExtensions/3.0/"
	 x="0px" y="0px" width="344.598px" height="330.363px" viewBox="0 0 344.598 330.363"
	 style="enable-background:new 0 0 344.598 330.363;" xml:space="preserve">
<style type="text/css">
	.st0{fill:#FFFFFF;}
</style>
<defs>
</defs>
<g>
	<path class="st0" d="M0,0c93.321,0.057,344.656,8.173,344.598,9.333c-4.208,83.895-10.099,220.116-19.265,321.029
		c-94.654,0.006-205.346-0.046-300,0C22.866,308.667,0,0,0,0z M271.172,150.534c6.604,33.513-3.321,73.717-39.949,98.813
		c-30.722,21.049-69.699,23.357-104.738,2.591c-17.198-10.192-29.978-25.097-37.854-43.586c-7.877-18.49-9.852-37.834-5.876-57.696
		c-8.281,0-16.356,0-24.381,0c0,46.366,0,92.408,0,138.441c79.29,0,158.208,0,237.34,0c0-46.278,0-92.32,0-138.563
		C287.483,150.534,279.538,150.534,271.172,150.534z M122,169.953c0.117,30.844,24.222,54.844,54.315,55.093
		c31.411,0.259,54.874-23.856,55.559-53.829c0.748-32.751-24.61-56.322-54.802-56.56C147.256,114.422,122.076,138.169,122,169.953z
		 M237.184,108.941c19.887,0,39.259,0,58.556,0c0-19.647,0-38.901,0-58.304c-19.632,0-39.003,0-58.556,0
		C237.184,70.194,237.184,89.447,237.184,108.941z"/>
</g>
</svg>