<!-- Generator: Adobe Illustrator 19.2.1, SVG Export Plug-In  -->
<svg version="1.1"
	 xmlns="http://www.w3.org/2000/svg" xmlns:xlink="http://www.w3.org/1999/xlink" xmlns:a="http://ns.adobe.com/AdobeSVGViewerExtensions/3.0/"
	 x="0px" y="0px" width="152.248px" height="116.649px" viewBox="0 0 152.248 116.649"
	 style="enable-background:new 0 0 152.248 116.649;" xml:space="preserve">
<style type="text/css">
	.st0{fill:#E73D3E;stroke:#FFFFFF;stroke-width:2.8346;stroke-miterlimit:10;}
	.st1{fill:#FFFFFF;}
</style>
<defs>
</defs>
<g>
	<g>
		<polygon class="st0" points="135.36,34.443 96.694,34.443 96.694,2.417 140.027,2.417 		"/>
		<polygon class="st0" points="150.694,80.31 84.001,80.31 88.694,35.417 146.555,35.417 		"/>
	</g>
	<g>
		<polygon class="st0" points="116.381,58.377 77.715,58.377 77.715,26.351 121.048,26.351 		"/>
		<polygon class="st0" points="131.715,104.244 65.022,104.244 69.715,59.351 127.576,59.351 		"/>
	</g>
	<g>
		<polygon class="st0" points="75.613,33.443 36.946,33.443 36.946,1.417 80.279,1.417 		"/>
		<polygon class="st0" points="90.946,80.31 24.253,80.31 28.946,35.417 86.807,35.417 		"/>
	</g>
	<g>
		<polygon class="st0" points="52.933,55.865 14.266,55.865 14.266,23.839 57.599,23.839 		"/>
		<polygon class="st0" points="68.266,101.732 1.573,101.732 6.266,56.839 64.127,56.839 		"/>
	</g>
	<g>
		<polygon class="st0" points="83.035,69.365 44.368,69.365 44.368,37.339 87.701,37.339 		"/>
		<polygon class="st0" points="98.368,115.232 31.675,115.232 36.368,70.339 94.229,70.339 		"/>
	</g>
	<path class="st1" d="M60.791,54.802h-2.395c-1.949,0-3.529-1.58-3.529-3.529v-2.395c0-1.949,1.58-3.529,3.529-3.529h2.395
		c1.949,0,3.529,1.58,3.529,3.529v2.395C64.32,53.222,62.74,54.802,60.791,54.802z"/>
	<path class="st1" d="M70.847,54.802h-0.103c-1.921,0-3.477-1.557-3.477-3.477v-0.103c0-1.921,1.557-3.477,3.477-3.477h0.103
		c1.921,0,3.477,1.557,3.477,3.477v0.103C74.324,53.245,72.767,54.802,70.847,54.802z"/>
	<path class="st1" d="M113.543,18.43h-1.362c-1.949,0-3.529-1.58-3.529-3.529V13.54c0-1.949,1.58-3.529,3.529-3.529h1.362
		c1.949,0,3.529,1.58,3.529,3.529v1.362C117.072,16.85,115.492,18.43,113.543,18.43z"/>
	<path class="st1" d="M123.599,18.43h-0.103c-1.921,0-3.477-1.557-3.477-3.477V14.85c0-1.921,1.557-3.477,3.477-3.477h0.103
		c1.921,0,3.477,1.557,3.477,3.477v0.103C127.076,16.874,125.519,18.43,123.599,18.43z"/>
	<path class="st1" d="M53.278,17.43H52.95c-1.949,0-3.529-1.58-3.529-3.529v-0.328c0-1.949,1.58-3.529,3.529-3.529h0.328
		c1.949,0,3.529,1.58,3.529,3.529v0.328C56.807,15.85,55.227,17.43,53.278,17.43z"/>
	<path class="st1" d="M63.334,17.43h-0.103c-1.921,0-3.477-1.557-3.477-3.477V13.85c0-1.921,1.557-3.477,3.477-3.477h0.103
		c1.921,0,3.477,1.557,3.477,3.477v0.103C66.811,15.874,65.255,17.43,63.334,17.43z"/>
	<path class="st1" d="M94.474,43.144h-1.362c-1.949,0-3.529-1.58-3.529-3.529v-1.362c0-1.949,1.58-3.529,3.529-3.529h1.362
		c1.949,0,3.529,1.58,3.529,3.529v1.362C98.003,41.564,96.423,43.144,94.474,43.144z"/>
	<path class="st1" d="M107.173,43.144h-2.746c-1.921,0-3.477-1.557-3.477-3.477v-2.746c0-1.921,1.557-3.477,3.477-3.477h2.746
		c1.921,0,3.477,1.557,3.477,3.477v2.746C110.65,41.587,109.093,43.144,107.173,43.144z"/>
	<path class="st1" d="M28.257,38.852h-1.362c-1.949,0-3.529-1.58-3.529-3.529v-1.362c0-1.949,1.58-3.529,3.529-3.529h1.362
		c1.949,0,3.529,1.58,3.529,3.529v1.362C31.786,37.272,30.206,38.852,28.257,38.852z"/>
	<path class="st1" d="M39.347,38.852h-0.103c-1.921,0-3.477-1.557-3.477-3.477v-0.103c0-1.921,1.557-3.477,3.477-3.477h0.103
		c1.921,0,3.477,1.557,3.477,3.477v0.103C42.824,37.295,41.267,38.852,39.347,38.852z"/>
</g>
</svg>